# 3ds Max Wavefront OBJ Exporter v0.97b - (c)2007 guruware
# File Created: 01.11.2018 18:55:32

mtllib Japan_Gate.mtl

#
# object Object004
#

v  36.1179 132.7204 95.5721
v  31.6278 132.7204 95.5721
v  31.6278 132.7204 92.3805
v  36.1179 132.7204 92.3805
v  35.6124 172.8076 93.3387
v  35.6124 173.1102 90.7400
v  32.1334 173.1102 90.7400
v  32.1334 172.8075 93.3387
v  35.7990 159.6093 91.8969
v  35.7990 159.5201 94.9137
v  31.9467 159.6093 91.8969
v  31.9467 159.5201 94.9137
v  35.6175 169.7770 94.0173
v  35.6175 169.8730 91.2384
v  32.1283 169.9877 91.2384
v  32.1283 169.7770 94.0173
v  35.6124 172.3650 96.2128
v  32.1334 172.3649 96.2128
v  32.1283 169.3150 97.0906
v  35.6175 169.3151 97.0906
v  35.7969 162.5235 94.6643
v  35.7969 162.6465 91.7137
v  31.9488 162.6465 91.7137
v  31.9488 162.5235 94.6643
v  35.7969 162.3436 97.9276
v  31.9488 162.3436 97.9276
v  31.9467 159.3896 98.2502
v  35.7990 159.3896 98.2502
v  36.1179 132.7204 71.5284
v  36.1179 132.7204 74.7201
v  31.6278 132.7204 74.7201
v  31.6278 132.7204 71.5284
v  35.6124 172.8075 73.7617
v  32.1334 172.8075 73.7618
v  32.1334 173.1102 76.3605
v  35.6124 173.1102 76.3605
v  35.7990 159.5201 72.1868
v  35.7990 159.6093 75.2036
v  31.9467 159.6093 75.2036
v  31.9467 159.5201 72.1868
v  35.6175 169.8730 75.8621
v  35.6175 169.7770 73.0832
v  32.1283 169.7770 73.0832
v  32.1283 169.9877 75.8621
v  35.6124 172.3650 70.8877
v  35.6175 169.3151 70.0099
v  32.1283 169.3150 70.0099
v  32.1334 172.3649 70.8877
v  35.7969 162.6465 75.3868
v  35.7969 162.5235 72.4362
v  31.9488 162.6465 75.3868
v  31.9488 162.5235 72.4362
v  35.7969 162.3436 69.1729
v  35.7990 159.3896 68.8503
v  31.9467 159.3896 68.8503
v  31.9488 162.3436 69.1729
v  -53.3125 132.7204 -71.2195
v  -57.8026 132.7204 -71.2195
v  -57.8026 132.7204 -74.4111
v  -53.3125 132.7204 -74.4111
v  -53.8181 172.8076 -73.4529
v  -53.8181 173.1102 -76.0516
v  -57.2970 173.1102 -76.0516
v  -57.2970 172.8075 -73.4529
v  -53.6314 159.6093 -74.8947
v  -53.6314 159.5201 -71.8779
v  -57.4837 159.6093 -74.8947
v  -57.4837 159.5201 -71.8779
v  -53.8130 169.7770 -72.7743
v  -53.8130 169.8730 -75.5532
v  -57.3021 169.9877 -75.5532
v  -57.3021 169.7770 -72.7743
v  -53.8181 172.3650 -70.5788
v  -57.2970 172.3649 -70.5788
v  -57.3021 169.3150 -69.7010
v  -53.8130 169.3151 -69.7010
v  -53.6335 162.5235 -72.1273
v  -53.6335 162.6465 -75.0779
v  -57.4816 162.6465 -75.0779
v  -57.4816 162.5235 -72.1273
v  -53.6335 162.3436 -68.8640
v  -57.4816 162.3436 -68.8640
v  -57.4837 159.3896 -68.5414
v  -53.6314 159.3896 -68.5414
v  -53.3125 132.7204 -95.2632
v  -53.3125 132.7204 -92.0715
v  -57.8026 132.7204 -92.0715
v  -57.8026 132.7204 -95.2632
v  -53.8181 172.8075 -93.0298
v  -57.2970 172.8075 -93.0298
v  -57.2970 173.1102 -90.4311
v  -53.8181 173.1102 -90.4311
v  -53.6314 159.5201 -94.6048
v  -53.6314 159.6093 -91.5880
v  -57.4837 159.6093 -91.5880
v  -57.4837 159.5201 -94.6048
v  -53.8130 169.8730 -90.9295
v  -53.8130 169.7770 -93.7084
v  -57.3021 169.7770 -93.7084
v  -57.3021 169.9877 -90.9295
v  -53.8181 172.3650 -95.9039
v  -53.8130 169.3151 -96.7817
v  -57.3021 169.3150 -96.7817
v  -57.2970 172.3649 -95.9039
v  -53.6335 162.6465 -91.4048
v  -53.6335 162.5235 -94.3554
v  -57.4816 162.6465 -91.4048
v  -57.4816 162.5235 -94.3554
v  -53.6335 162.3436 -97.6187
v  -53.6314 159.3896 -97.9413
v  -57.4837 159.3896 -97.9413
v  -57.4816 162.3436 -97.6187
# 112 vertices

vn 0.0000 -1.0000 -0.0000
vn -0.0000 0.9933 0.1157
vn 0.0000 0.9933 0.1157
vn 0.9999 0.0119 0.0000
vn 1.0000 0.0060 0.0002
vn 1.0000 0.0066 0.0002
vn 0.9999 0.0119 -0.0000
vn 0.0000 -0.0180 -0.9998
vn -0.9999 0.0119 0.0000
vn -1.0000 0.0066 0.0002
vn -1.0000 0.0061 0.0002
vn -0.9999 0.0119 -0.0000
vn 0.0000 0.0246 0.9997
vn 1.0000 0.0017 0.0001
vn 1.0000 0.0017 0.0002
vn 0.9999 0.0147 0.0005
vn 0.9999 0.0122 0.0004
vn -1.0000 0.0017 0.0002
vn -0.9999 0.0118 0.0009
vn -0.9999 0.0149 0.0010
vn -0.0000 0.2766 0.9610
vn 0.9999 0.0118 0.0005
vn 0.9999 0.0136 0.0006
vn -0.0015 -0.0653 -0.9979
vn -0.0022 -0.0657 -0.9978
vn -0.0006 -0.0649 -0.9979
vn 0.0000 -0.0646 -0.9979
vn -0.9999 0.0135 0.0007
vn -0.9999 0.0118 0.0005
vn 0.0000 0.0889 0.9960
vn 0.0000 0.1086 0.9941
vn -0.0000 0.9883 0.1522
vn -1.0000 0.0017 0.0003
vn -1.0000 0.0018 0.0003
vn 0.0000 -0.9889 -0.1486
vn 1.0000 0.0017 0.0003
vn 1.0000 0.0018 0.0003
vn 1.0000 0.0007 0.0000
vn 0.0000 0.9985 0.0550
vn -1.0000 0.0007 0.0000
vn 0.0000 -0.9992 -0.0391
vn -0.0000 0.9933 -0.1157
vn 0.0000 0.9933 -0.1157
vn 1.0000 0.0066 -0.0002
vn 1.0000 0.0060 -0.0002
vn -0.0000 -0.0180 0.9998
vn 0.0000 -0.0180 0.9998
vn -1.0000 0.0061 -0.0002
vn -1.0000 0.0066 -0.0002
vn 0.0000 0.0246 -0.9997
vn 1.0000 0.0017 -0.0001
vn 0.9999 0.0122 -0.0004
vn 0.9999 0.0147 -0.0005
vn 1.0000 0.0017 -0.0002
vn -1.0000 0.0017 -0.0002
vn -0.9999 0.0149 -0.0010
vn -0.9999 0.0118 -0.0009
vn -0.0000 0.2766 -0.9610
vn 0.9999 0.0136 -0.0006
vn 0.9999 0.0118 -0.0005
vn -0.0015 -0.0653 0.9979
vn 0.0000 -0.0646 0.9979
vn -0.0006 -0.0649 0.9979
vn -0.0022 -0.0657 0.9978
vn -0.9999 0.0118 -0.0005
vn -0.9999 0.0135 -0.0007
vn 0.0000 0.0888 -0.9960
vn 0.0000 0.1086 -0.9941
vn 0.0000 1.0000 -0.0000
vn 1.0000 0.0016 -0.0000
vn -0.0328 -0.9995 0.0000
vn -0.0329 -0.9995 -0.0000
vn -1.0000 0.0016 -0.0000
vn -0.0000 0.9884 -0.1522
vn -0.0000 0.9883 -0.1522
vn -1.0000 0.0018 -0.0003
vn -1.0000 0.0017 -0.0003
vn 0.0000 -0.9889 0.1486
vn 1.0000 0.0018 -0.0003
vn 1.0000 0.0017 -0.0003
vn 1.0000 0.0007 -0.0000
vn -1.0000 0.0007 -0.0000
vn 0.0000 0.9985 -0.0550
vn 0.0000 -0.9992 0.0391
vn -0.0000 -0.9992 0.0391
vn 0.0000 0.0889 -0.9960
# 86 vertex normals

vt 0.8371 0.7072 -15.7266
vt 0.8090 0.7072 -15.7266
vt 0.8090 0.6804 -15.7266
vt 0.8371 0.6804 -15.7266
vt 0.7526 0.9382 0.0000
vt 0.7737 0.9384 0.0000
vt 0.7737 0.9585 0.0000
vt 0.7526 0.9587 0.0000
vt 0.8090 0.7599 -15.7266
vt 0.6443 0.7599 -15.7266
vt 0.6443 0.7331 14.8883
vt 0.8090 0.7331 -15.7266
vt 0.8090 0.7855 -15.7266
vt 0.6443 0.7855 15.7266
vt 0.6443 0.7072 -15.7266
vt 0.6443 0.6804 -15.7266
vt 0.7456 0.9210 0.0000
vt 0.7692 0.9198 0.0000
vt 0.7690 0.9765 0.0000
vt 0.7456 0.9759 0.0000
vt 0.7108 0.9494 0.0000
vt 0.7289 0.9588 0.0000
vt 0.7200 0.9759 0.0000
vt 0.7019 0.9664 0.0000
vt 0.9504 0.7975 -51.7628
vt 0.9047 0.7975 -51.7628
vt 0.9047 0.7136 -38.7613
vt 0.9504 0.7136 -51.7628
vt 0.9923 0.7975 -51.7628
vt 0.9923 0.7136 -51.7628
vt 0.8627 0.7975 -51.7628
vt 0.8173 0.7975 51.7628
vt 0.8173 0.7136 -51.7628
vt 0.8627 0.7136 -51.7628
vt 0.9122 0.8307 0.0000
vt 0.9364 0.8310 0.0000
vt 0.9388 0.8485 0.0000
vt 0.9138 0.8484 0.0000
vt 0.9363 0.8885 0.0000
vt 0.9122 0.8888 0.0000
vt 0.9138 0.8710 0.0000
vt 0.9388 0.8710 0.0000
vt 0.9852 0.8922 0.0000
vt 0.9631 0.8882 0.0000
vt 0.9662 0.8710 0.0000
vt 0.9884 0.8750 0.0000
vt 0.7289 0.9381 0.0000
vt 0.7456 0.9006 0.0000
vt 0.7201 0.9209 0.0000
vt 0.7202 0.9006 0.0000
vt 0.9632 0.8314 0.0000
vt 0.9662 0.8486 0.0000
vt 0.9367 0.8085 0.0000
vt 0.9635 0.8089 0.0000
vt 0.9127 0.9382 0.0000
vt 0.9127 0.9587 0.0000
vt 0.8915 0.9585 0.0000
vt 0.8915 0.9384 0.0000
vt 0.6443 0.7331 15.7266
vt 0.6443 0.6804 14.8882
vt 0.6443 0.7855 -15.7266
vt 0.8961 0.9198 0.0000
vt 0.9196 0.9210 0.0000
vt 0.9197 0.9759 0.0000
vt 0.8962 0.9765 0.0000
vt 0.9544 0.9494 0.0000
vt 0.9633 0.9664 0.0000
vt 0.9453 0.9759 0.0000
vt 0.9364 0.9588 0.0000
vt 0.9047 0.7975 -51.6346
vt 0.9047 0.7136 -51.6346
vt 0.9504 0.7136 -38.6654
vt 0.9504 0.7975 -51.6346
vt 0.8627 0.7975 51.6346
vt 0.8627 0.7136 -51.6346
vt 0.8173 0.7975 -51.6346
vt 0.8173 0.7136 -51.6346
vt 0.9923 0.7136 -51.6346
vt 0.9923 0.7975 -51.6346
vt 0.7781 0.8307 0.0000
vt 0.7765 0.8485 0.0000
vt 0.7515 0.8485 0.0000
vt 0.7539 0.8310 0.0000
vt 0.7540 0.8885 0.0000
vt 0.7515 0.8710 0.0000
vt 0.7765 0.8710 0.0000
vt 0.7781 0.8888 0.0000
vt 0.7051 0.8923 0.0000
vt 0.7019 0.8751 0.0000
vt 0.7241 0.8710 0.0000
vt 0.7272 0.8882 0.0000
vt 0.7694 0.8994 0.0000
vt 0.8959 0.8994 0.0000
vt 0.9363 0.9381 0.0000
vt 0.9197 0.9006 0.0000
vt 0.9451 0.9006 0.0000
vt 0.9452 0.9209 0.0000
vt 0.7780 0.8082 0.0000
vt 0.9123 0.8082 0.0000
vt 0.7240 0.8486 0.0000
vt 0.7271 0.8314 0.0000
vt 0.7268 0.8089 0.0000
vt 0.7536 0.8085 0.0000
# 103 texture coords

o Object004
g Object004
usemtl wire_243224176
s 2
f 1/1/1 2/2/1 3/3/1 
f 3/3/1 4/4/1 1/1/1 
s 4
f 5/5/2 6/6/3 7/7/2 
f 7/7/2 8/8/2 5/5/2 
s 8
f 4/9/4 9/10/5 10/11/6 
f 10/11/6 1/12/7 4/9/4 
s 16
f 3/13/8 11/14/8 9/10/8 
f 9/10/8 4/9/8 3/13/8 
s 32
f 2/2/9 12/15/10 11/16/11 
f 11/16/11 3/3/12 2/2/9 
s 64
f 1/12/13 10/11/13 12/15/13 
f 12/15/13 2/2/13 1/12/13 
s 8
f 6/6/14 5/5/15 13/17/16 
f 13/17/16 14/18/17 6/6/14 
s 32
f 8/8/18 7/7/18 15/19/19 
f 15/19/19 16/20/20 8/8/18 
s 64
f 17/21/21 18/22/21 19/23/21 
f 19/23/21 20/24/21 17/21/21 
s 8
f 14/25/17 13/26/16 21/27/22 
f 21/27/22 22/28/23 14/25/17 
s 16
f 15/29/24 14/25/25 22/28/26 
f 22/28/26 23/30/27 15/29/24 
s 32
f 16/31/20 15/32/19 23/33/28 
f 23/33/28 24/34/29 16/31/20 
s 64
f 13/26/30 16/31/30 24/34/30 
f 24/34/30 21/27/30 13/26/30 
s 8
f 22/35/23 21/36/22 10/37/6 
f 10/37/6 9/38/5 22/35/23 
s 32
f 24/39/29 23/40/28 11/41/11 
f 11/41/11 12/42/10 24/39/29 
s 64
f 25/43/31 26/44/31 27/45/31 
f 27/45/31 28/46/31 25/43/31 
s off
f 5/5/32 8/8/32 18/22/32 
f 18/22/32 17/47/32 5/5/32 
f 8/8/33 16/20/33 19/23/33 
f 19/23/34 18/22/34 8/8/34 
f 16/48/35 13/17/35 20/49/35 
f 20/49/35 19/50/35 16/48/35 
f 13/17/36 5/5/36 17/47/36 
f 17/47/37 20/49/37 13/17/37 
f 10/37/38 21/36/38 25/51/38 
f 25/51/38 28/52/38 10/37/38 
f 21/36/39 24/53/39 26/54/39 
f 26/54/39 25/51/39 21/36/39 
f 24/39/40 12/42/40 27/45/40 
f 27/45/40 26/44/40 24/39/40 
f 12/42/41 10/37/41 28/52/41 
f 28/52/41 27/45/41 12/42/41 
s 2
f 29/4/1 30/1/1 31/2/1 
f 31/2/1 32/3/1 29/4/1 
s 4
f 33/55/42 34/56/42 35/57/42 
f 35/57/42 36/58/43 33/55/42 
s 8
f 30/12/7 29/9/7 37/10/44 
f 37/10/44 38/59/45 30/12/7 
s 16
f 31/2/46 30/12/47 38/59/46 
f 38/59/46 39/15/46 31/2/46 
s 32
f 32/3/12 31/2/12 39/15/48 
f 39/15/48 40/60/49 32/3/12 
s 64
f 29/9/50 32/13/50 40/61/50 
f 40/61/50 37/10/50 29/9/50 
s 8
f 36/58/51 41/62/52 42/63/53 
f 42/63/53 33/55/54 36/58/51 
s 32
f 34/56/55 43/64/56 44/65/57 
f 44/65/57 35/57/55 34/56/55 
s 64
f 45/66/58 46/67/58 47/68/58 
f 47/68/58 48/69/58 45/66/58 
s 8
f 41/70/52 49/71/59 50/72/60 
f 50/72/60 42/73/53 41/70/52 
s 16
f 44/74/61 51/75/62 49/71/63 
f 49/71/63 41/70/64 44/74/61 
s 32
f 43/76/56 52/77/65 51/75/66 
f 51/75/66 44/74/57 43/76/56 
s 64
f 42/73/67 50/72/67 52/78/67 
f 52/78/67 43/79/67 42/73/67 
s 8
f 49/80/59 38/81/45 37/82/44 
f 37/82/44 50/83/60 49/80/59 
s 32
f 52/84/65 40/85/49 39/86/48 
f 39/86/48 51/87/66 52/84/65 
s 64
f 53/88/68 54/89/68 55/90/68 
f 55/90/68 56/91/68 53/88/68 
s 2
f 7/7/69 6/6/69 36/58/69 
f 36/58/69 35/57/69 7/7/69 
s 1
f 36/58/70 6/6/70 14/18/70 
f 14/18/70 41/62/70 36/58/70 
s 2
f 41/62/71 14/18/71 15/92/71 
f 15/92/71 44/93/72 41/62/71 
s 1
f 15/19/73 7/7/73 35/57/73 
f 35/57/73 44/65/73 15/19/73 
s off
f 33/55/74 45/94/74 48/69/74 
f 48/69/75 34/56/75 33/55/75 
f 34/56/76 48/69/76 47/68/76 
f 47/68/77 43/64/77 34/56/77 
f 43/95/78 47/96/78 46/97/78 
f 46/97/78 42/63/78 43/95/78 
f 42/63/79 46/97/79 45/94/79 
f 45/94/80 33/55/80 42/63/80 
s 1
f 51/98/69 23/99/69 22/35/69 
f 22/35/69 49/80/69 51/98/69 
s 2
f 49/80/81 22/35/81 9/38/81 
f 9/38/81 38/81/81 49/80/81 
s 1
f 38/81/1 9/38/1 11/41/1 
f 11/41/1 39/86/1 38/81/1 
s 2
f 11/41/82 23/40/82 51/87/82 
f 51/87/82 39/86/82 11/41/82 
s off
f 37/82/81 54/100/81 53/101/81 
f 53/101/81 50/83/81 37/82/81 
f 50/83/83 53/101/83 56/102/83 
f 56/102/83 52/103/83 50/83/83 
f 52/84/82 56/91/82 55/90/82 
f 55/90/82 40/85/82 52/84/82 
f 40/85/84 55/90/84 54/100/84 
f 54/100/85 37/82/85 40/85/85 
s 2
f 57/1/1 58/2/1 59/3/1 
f 59/3/1 60/4/1 57/1/1 
s 4
f 61/5/2 62/6/3 63/7/2 
f 63/7/2 64/8/2 61/5/2 
s 8
f 60/9/4 65/10/5 66/11/6 
f 66/11/6 57/12/7 60/9/4 
s 16
f 59/13/8 67/14/8 65/10/8 
f 65/10/8 60/9/8 59/13/8 
s 32
f 58/2/9 68/15/10 67/16/11 
f 67/16/11 59/3/12 58/2/9 
s 64
f 57/12/13 66/11/13 68/15/13 
f 68/15/13 58/2/13 57/12/13 
s 8
f 62/6/14 61/5/15 69/17/16 
f 69/17/16 70/18/17 62/6/14 
s 32
f 64/8/18 63/7/18 71/19/19 
f 71/19/19 72/20/20 64/8/18 
s 64
f 73/21/21 74/22/21 75/23/21 
f 75/23/21 76/24/21 73/21/21 
s 8
f 70/25/17 69/26/16 77/27/22 
f 77/27/22 78/28/23 70/25/17 
s 16
f 71/29/24 70/25/25 78/28/26 
f 78/28/26 79/30/27 71/29/24 
s 32
f 72/31/20 71/32/19 79/33/28 
f 79/33/28 80/34/29 72/31/20 
s 64
f 69/26/30 72/31/30 80/34/30 
f 80/34/30 77/27/30 69/26/30 
s 8
f 78/35/23 77/36/22 66/37/6 
f 66/37/6 65/38/5 78/35/23 
s 32
f 80/39/29 79/40/28 67/41/11 
f 67/41/11 68/42/10 80/39/29 
s 64
f 81/43/31 82/44/31 83/45/31 
f 83/45/31 84/46/31 81/43/31 
s off
f 61/5/32 64/8/32 74/22/32 
f 74/22/32 73/47/32 61/5/32 
f 64/8/33 72/20/33 75/23/33 
f 75/23/34 74/22/34 64/8/34 
f 72/48/35 69/17/35 76/49/35 
f 76/49/35 75/50/35 72/48/35 
f 69/17/36 61/5/36 73/47/36 
f 73/47/37 76/49/37 69/17/37 
f 66/37/38 77/36/38 81/51/38 
f 81/51/38 84/52/38 66/37/38 
f 77/36/39 80/53/39 82/54/39 
f 82/54/39 81/51/39 77/36/39 
f 80/39/40 68/42/40 83/45/40 
f 83/45/40 82/44/40 80/39/40 
f 68/42/41 66/37/41 84/52/41 
f 84/52/41 83/45/41 68/42/41 
s 2
f 85/4/1 86/1/1 87/2/1 
f 87/2/1 88/3/1 85/4/1 
s 4
f 89/55/42 90/56/42 91/57/42 
f 91/57/42 92/58/43 89/55/42 
s 8
f 86/12/7 85/9/7 93/10/44 
f 93/10/44 94/59/45 86/12/7 
s 16
f 87/2/46 86/12/47 94/59/46 
f 94/59/46 95/15/46 87/2/46 
s 32
f 88/3/12 87/2/12 95/15/48 
f 95/15/48 96/60/49 88/3/12 
s 64
f 85/9/50 88/13/50 96/61/50 
f 96/61/50 93/10/50 85/9/50 
s 8
f 92/58/51 97/62/52 98/63/53 
f 98/63/53 89/55/54 92/58/51 
s 32
f 90/56/55 99/64/56 100/65/57 
f 100/65/57 91/57/55 90/56/55 
s 64
f 101/66/58 102/67/58 103/68/58 
f 103/68/58 104/69/58 101/66/58 
s 8
f 97/70/52 105/71/59 106/72/60 
f 106/72/60 98/73/53 97/70/52 
s 16
f 100/74/61 107/75/62 105/71/63 
f 105/71/63 97/70/64 100/74/61 
s 32
f 99/76/56 108/77/65 107/75/66 
f 107/75/66 100/74/57 99/76/56 
s 64
f 98/73/86 106/72/67 108/78/67 
f 108/78/67 99/79/86 98/73/86 
s 8
f 105/80/59 94/81/45 93/82/44 
f 93/82/44 106/83/60 105/80/59 
s 32
f 108/84/65 96/85/49 95/86/48 
f 95/86/48 107/87/66 108/84/65 
s 64
f 109/88/68 110/89/68 111/90/68 
f 111/90/68 112/91/68 109/88/68 
s 2
f 63/7/69 62/6/69 92/58/69 
f 92/58/69 91/57/69 63/7/69 
s 1
f 92/58/70 62/6/70 70/18/70 
f 70/18/70 97/62/70 92/58/70 
s 2
f 97/62/71 70/18/71 71/92/71 
f 71/92/71 100/93/72 97/62/71 
s 1
f 71/19/73 63/7/73 91/57/73 
f 91/57/73 100/65/73 71/19/73 
s off
f 89/55/74 101/94/74 104/69/74 
f 104/69/75 90/56/75 89/55/75 
f 90/56/76 104/69/76 103/68/76 
f 103/68/77 99/64/77 90/56/77 
f 99/95/78 103/96/78 102/97/78 
f 102/97/78 98/63/78 99/95/78 
f 98/63/79 102/97/79 101/94/79 
f 101/94/80 89/55/80 98/63/80 
s 1
f 107/98/69 79/99/69 78/35/69 
f 78/35/69 105/80/69 107/98/69 
s 2
f 105/80/81 78/35/81 65/38/81 
f 65/38/81 94/81/81 105/80/81 
s 1
f 94/81/1 65/38/1 67/41/1 
f 67/41/1 95/86/1 94/81/1 
s 2
f 67/41/82 79/40/82 107/87/82 
f 107/87/82 95/86/82 67/41/82 
s off
f 93/82/81 110/100/81 109/101/81 
f 109/101/81 106/83/81 93/82/81 
f 106/83/83 109/101/83 112/102/83 
f 112/102/83 108/103/83 106/83/83 
f 108/84/82 112/91/82 111/90/82 
f 111/90/82 96/85/82 108/84/82 
f 96/85/84 111/90/84 110/100/84 
f 110/100/85 93/82/85 96/85/85 
# 224 faces

