# 3ds Max Wavefront OBJ Exporter v0.97b - (c)2007 guruware
# File Created: 30.10.2018 16:41:32

mtllib Portal rim.mtl

#
# object Box195
#

v  0.0000 -9.5415 0.0223
v  0.0000 -7.0916 -5.3126
v  0.0000 -6.8951 -4.9186
v  0.0000 -9.0466 0.0223
v  0.0000 -7.0916 5.3126
v  0.0000 -6.9362 4.8670
v  0.0000 6.9099 -4.9186
v  0.0000 7.0980 -5.3126
v  0.0000 9.5415 0.0223
v  0.0000 9.0582 0.0223
v  0.0000 7.0980 5.3126
v  0.0000 6.9510 4.8670
# 12 vertices

vn 1.0000 0.0000 -0.0000
vn 1.0000 -0.0000 0.0000
# 2 vertex normals

vt 0.4979 0.0000 0.0000
vt 0.9629 0.0000 0.0000
vt 0.9629 0.0259 0.0000
vt 0.4979 0.0259 0.0000
vt 0.0000 0.0259 0.0000
vt 0.0456 0.0259 0.0000
vt 0.9629 0.9747 0.0000
vt 1.0000 0.9747 0.0000
vt 0.4979 1.0000 0.0000
vt 0.4979 0.9747 0.0000
vt 0.0456 1.0000 0.0000
vt 0.0456 0.9747 0.0000
# 12 texture coords

o Box195
g Box195
usemtl wire_088088225
s 8
f 1/1/1 2/2/1 3/3/1 4/4/1 
f 5/5/1 1/1/1 4/4/1 6/6/1 
f 7/7/2 8/8/2 9/9/1 10/10/1 
f 10/10/1 9/9/1 11/11/1 12/12/1 
f 6/6/1 12/12/1 11/11/1 5/5/1 
f 2/2/1 8/8/2 7/7/2 3/3/1 
# 6 polygons

