# 3ds Max Wavefront OBJ Exporter v0.97b - (c)2007 guruware
# File Created: 30.10.2018 16:15:35

mtllib Portal Plane.mtl

#
# object Box186
#

v  -0.9101 -7.0916 5.3126
v  -0.9101 -9.5415 0.0223
v  -0.9101 9.5415 0.0223
v  -0.9101 7.0980 5.3126
v  -0.9101 -7.0916 -5.3126
v  -0.9101 7.0980 -5.3126
# 6 vertices

vn 1.0000 0.0000 -0.0000
# 1 vertex normals

vt 0.0000 0.0000 0.0000
vt 0.4979 0.0000 0.0000
vt 0.4979 1.0000 0.0000
vt 0.0000 1.0000 0.0000
vt 1.0000 0.0000 0.0000
vt 1.0000 1.0000 0.0000
# 6 texture coords

o Box186
g Box186
usemtl wire_088088225
s 8
f 1/1/1 2/2/1 3/3/1 4/4/1 
f 2/2/1 5/5/1 6/6/1 3/3/1 
# 2 polygons

