# 3ds Max Wavefront OBJ Exporter v0.97b - (c)2007 guruware
# File Created: 31.10.2018 14:30:20

mtllib Step Ramp.mtl

#
# object Box362
#

v  -13.4742 0.9693 -0.0000
v  13.4742 0.9693 -0.0000
v  13.4742 -0.9693 -3.4480
v  -13.4742 -0.9693 -3.4480
v  -13.4742 -0.9693 -0.0000
v  -13.4742 -0.9693 3.4480
v  -13.4742 0.9693 3.4480
v  13.4742 -0.9693 -0.0000
v  13.4742 -0.9693 3.4480
v  13.4742 0.9693 3.4480
# 10 vertices

vn -0.6520 0.7311 -0.2011
vn 0.6520 0.7311 -0.2011
vn 0.5416 -0.2229 -0.8105
vn -0.5416 -0.2229 -0.8105
vn -0.7071 -0.7071 -0.0000
vn -0.5774 -0.5774 0.5774
vn -0.5774 0.5774 0.5774
vn 0.7071 -0.7071 -0.0000
vn 0.5774 -0.5774 0.5774
vn 0.5774 0.5774 0.5774
# 10 vertex normals

vt 0.1670 0.1880 0.0000
vt 0.0000 0.0000 0.0000
vt 0.1670 0.0000 0.0000
vt 0.0000 0.1880 0.0000
# 4 texture coords

o Box362
g Box362
usemtl wire_086086086
s off
f 1/1/1 2/1/2 3/2/3 4/2/4 
s 4
f 5/2/5 6/3/6 7/1/7 1/4/1 
s off
f 6/3/6 5/2/5 8/2/8 9/3/9 
f 7/1/7 6/3/6 9/3/9 10/1/10 
f 1/4/1 7/1/7 10/1/10 2/4/2 
f 2/4/2 10/1/10 9/3/9 8/2/8 
f 8/2/8 5/2/5 4/2/4 3/2/3 
f 4/2/4 5/2/5 1/4/1 
f 2/1/2 8/2/8 3/2/3 
# 7 polygons - 2 triangles

