# 3ds Max Wavefront OBJ Exporter v0.97b - (c)2007 guruware
# File Created: 31.10.2018 14:29:23

mtllib Step.mtl

#
# object Box359
#

v  -13.4742 -0.9693 -1.7240
v  -13.4742 -0.9693 1.7240
v  -13.4742 0.9693 1.7240
v  -13.4742 0.9693 -1.7240
v  13.4742 0.9693 -1.7240
v  13.4742 -0.9693 -1.7240
v  13.4742 -0.9693 1.7240
v  13.4742 0.9693 1.7240
# 8 vertices

vn -0.5774 -0.5774 -0.5774
vn -0.5774 -0.5774 0.5774
vn -0.5774 0.5774 0.5774
vn -0.5774 0.5774 -0.5774
vn 0.5774 0.5774 -0.5774
vn 0.5774 -0.5774 -0.5774
vn 0.5774 -0.5774 0.5774
vn 0.5774 0.5774 0.5774
# 8 vertex normals

vt 0.0000 0.0000 0.0000
vt 0.1670 0.0000 0.0000
vt 0.1670 0.1880 0.0000
vt 0.0000 0.1880 0.0000
# 4 texture coords

o Box359
g Box359
usemtl wire_086086086
s 4
f 1/1/1 2/2/2 3/3/3 4/4/4 
s off
f 1/1/1 4/4/4 5/4/5 6/1/6 
f 2/2/2 1/1/1 6/1/6 7/2/7 
f 3/3/3 2/2/2 7/2/7 8/3/8 
f 4/4/4 3/3/3 8/3/8 5/4/5 
f 5/4/5 8/3/8 7/2/7 6/1/6 
# 6 polygons

