# 3ds Max Wavefront OBJ Exporter v0.97b - (c)2007 guruware
# File Created: 30.10.2018 19:10:37

mtllib Elavator Tooth.mtl

#
# object Box357
#

v  -2.6631 0.7659 -0.8773
v  -2.6631 0.0000 -0.1757
v  2.6631 0.0000 -0.1757
v  2.6631 0.7659 -0.8773
v  -2.6631 0.0000 -0.8773
v  2.6631 0.0000 -0.8773
# 6 vertices

vn 0.0000 0.6755 0.7374
vn 0.0000 -0.4030 0.9152
vn 0.0000 -1.0000 -0.0000
# 3 vertex normals

vt 0.0000 0.0000 0.0000
vt 1.0000 0.0000 0.0000
vt 1.0000 1.0000 0.0000
vt 0.0000 1.0000 0.0000
# 4 texture coords

o Box357
g Box357
usemtl wire_012012012
s 20
f 1/1/1 2/2/2 3/3/2 4/4/1 
s off
f 2/2/2 5/1/3 6/2/3 3/3/2 
# 2 polygons

