# 3ds Max Wavefront OBJ Exporter v0.97b - (c)2007 guruware
# File Created: 01.11.2018 09:54:31

mtllib button.mtl

#
# object Sphere001
#

v  14.6816 -0.0000 5.3437
v  11.9686 -0.0000 10.0428
v  7.8119 -0.0000 13.5307
v  2.7130 -0.0000 15.3865
v  -2.7131 -0.0000 15.3865
v  -7.8119 -0.0000 13.5307
v  -11.9686 -0.0000 10.0428
v  -14.6816 -0.0000 5.3437
v  -15.6239 -0.0000 -0.0000
v  -14.6816 -0.0000 -5.3437
v  -11.9686 -0.0000 -10.0428
v  -7.8119 -0.0000 -13.5307
v  -2.7131 -0.0000 -15.3865
v  2.7131 -0.0000 -15.3865
v  7.8119 -0.0000 -13.5307
v  11.9686 -0.0000 -10.0428
v  14.6816 -0.0000 -5.3437
v  15.6239 -0.0000 -0.0000
v  14.6816 2.9515 -5.3437
v  15.6239 2.9515 -0.0000
v  11.9686 2.9515 -10.0428
v  7.8119 2.9515 -13.5307
v  2.7131 2.9515 -15.3865
v  -2.7131 2.9515 -15.3865
v  -7.8119 2.9515 -13.5307
v  -11.9686 2.9515 -10.0428
v  -14.6816 2.9515 -5.3437
v  -15.6239 2.9515 -0.0000
v  -14.6816 2.9515 5.3437
v  -11.9686 2.9515 10.0428
v  -7.8119 2.9515 13.5307
v  -2.7131 2.9515 15.3865
v  2.7130 2.9515 15.3865
v  7.8119 2.9515 13.5307
v  11.9686 2.9515 10.0428
v  14.6816 2.9515 5.3437
# 36 vertices

vn 0.6975 -0.6701 0.2539
vn 0.5687 -0.6700 0.4772
vn 0.3712 -0.6700 0.6429
vn 0.1289 -0.6700 0.7311
vn -0.1289 -0.6700 0.7311
vn -0.3712 -0.6700 0.6429
vn -0.5686 -0.6701 0.4771
vn -0.6975 -0.6701 0.2539
vn -0.7423 -0.6701 -0.0000
vn -0.6976 -0.6700 -0.2539
vn -0.5687 -0.6700 -0.4772
vn -0.3712 -0.6700 -0.6429
vn -0.1289 -0.6700 -0.7311
vn 0.1289 -0.6700 -0.7311
vn 0.3712 -0.6700 -0.6429
vn 0.5686 -0.6701 -0.4771
vn 0.6975 -0.6701 -0.2539
vn 0.7423 -0.6701 -0.0000
vn 0.6975 0.6701 -0.2539
vn 0.7423 0.6701 -0.0000
vn 0.5686 0.6701 -0.4771
vn 0.3712 0.6700 -0.6429
vn 0.1289 0.6700 -0.7311
vn -0.1289 0.6700 -0.7311
vn -0.3712 0.6700 -0.6429
vn -0.5687 0.6700 -0.4772
vn -0.6976 0.6700 -0.2539
vn -0.7423 0.6701 -0.0000
vn -0.6975 0.6701 0.2539
vn -0.5686 0.6701 0.4771
vn -0.3712 0.6700 0.6429
vn -0.1289 0.6700 0.7311
vn 0.1289 0.6700 0.7311
vn 0.3712 0.6700 0.6429
vn 0.5687 0.6700 0.4772
vn 0.6975 0.6701 0.2539
# 36 vertex normals

vt 0.3400 0.0000 -0.0000
vt 0.1953 0.0000 -0.3473
vt 0.0874 0.0000 -0.6527
vt 0.0292 0.0000 -0.8794
vt 0.0278 0.0000 -1.0000
vt 0.0833 0.0000 -1.0000
vt 0.1891 0.0000 -0.8794
vt 0.3324 0.0000 -0.6527
vt 0.4960 0.0000 -0.3473
vt 0.6600 0.0000 -0.0000
vt 0.8047 0.0000 0.3473
vt 0.9126 0.0000 0.6527
vt 0.9708 0.0000 0.8794
vt 0.9722 0.0000 1.0000
vt 0.9167 0.0000 1.0000
vt 0.8611 0.0000 1.0000
vt 0.8056 0.0000 1.0000
vt 0.7500 0.0000 1.0000
vt 0.8056 1.0000 1.0000
vt 0.7500 1.0000 1.0000
vt 0.8611 1.0000 1.0000
vt 0.9167 1.0000 1.0000
vt 0.9722 1.0000 1.0000
vt -0.0278 0.0000 1.0000
vt 0.0278 0.0000 1.0000
vt 0.0278 1.0000 1.0000
vt -0.0278 1.0000 1.0000
vt 0.0833 0.0000 1.0000
vt 0.0833 1.0000 1.0000
vt 0.1389 0.0000 1.0000
vt 0.1389 1.0000 1.0000
vt 0.1944 0.0000 1.0000
vt 0.1944 1.0000 1.0000
vt 0.2500 0.0000 1.0000
vt 0.2500 1.0000 1.0000
vt 0.3056 0.0000 1.0000
vt 0.3056 1.0000 1.0000
vt 0.3611 0.0000 1.0000
vt 0.3611 1.0000 1.0000
vt 0.4167 0.0000 1.0000
vt 0.4167 1.0000 1.0000
vt 0.4722 0.0000 1.0000
vt 0.4722 1.0000 1.0000
vt 0.5278 0.0000 1.0000
vt 0.5278 1.0000 1.0000
vt 0.5833 0.0000 1.0000
vt 0.5833 1.0000 1.0000
vt 0.6389 0.0000 1.0000
vt 0.6389 1.0000 1.0000
vt 0.6944 0.0000 1.0000
vt 0.6944 1.0000 1.0000
vt 0.9708 1.0000 0.8794
vt 0.9126 1.0000 0.6527
vt 0.8047 1.0000 0.3473
vt 0.6600 1.0000 0.0000
vt 0.4960 1.0000 -0.3473
vt 0.3325 1.0000 -0.6527
vt 0.1891 1.0000 -0.8794
vt 0.0833 1.0000 -1.0000
vt 0.0278 1.0000 -1.0000
vt 0.0292 1.0000 -0.8794
vt 0.0874 1.0000 -0.6527
vt 0.1953 1.0000 -0.3473
# 63 texture coords

o Sphere001
g Sphere001
usemtl wire_088088225
s 1
f 1/1/1 2/2/2 3/3/3 4/4/4 5/5/5 6/6/6 7/7/7 8/8/8 9/9/9 10/10/10 11/11/11 12/12/12 13/13/13 14/14/14 15/15/15 16/16/16 17/17/17 18/18/18 
s 8
f 18/18/18 17/17/17 19/19/19 20/20/20 
f 17/17/17 16/16/16 21/21/21 19/19/19 
f 16/16/16 15/15/15 22/22/22 21/21/21 
f 15/15/15 14/14/14 23/23/23 22/22/22 
f 14/24/14 13/25/13 24/26/24 23/27/23 
f 13/25/13 12/28/12 25/29/25 24/26/24 
f 12/28/12 11/30/11 26/31/26 25/29/25 
f 11/30/11 10/32/10 27/33/27 26/31/26 
f 10/32/10 9/34/9 28/35/28 27/33/27 
f 9/34/9 8/36/8 29/37/29 28/35/28 
f 8/36/8 7/38/7 30/39/30 29/37/29 
f 7/38/7 6/40/6 31/41/31 30/39/30 
f 6/40/6 5/42/5 32/43/32 31/41/31 
f 5/42/5 4/44/4 33/45/33 32/43/32 
f 4/44/4 3/46/3 34/47/34 33/45/33 
f 3/46/3 2/48/2 35/49/35 34/47/34 
f 2/48/2 1/50/1 36/51/36 35/49/35 
f 1/50/1 18/18/18 20/20/20 36/51/36 
s 1
f 36/51/36 20/20/20 19/19/19 21/21/21 22/22/22 23/23/23 24/52/24 25/53/25 26/54/26 27/55/27 28/56/28 29/57/29 30/58/30 31/59/31 32/60/32 33/61/33 34/62/34 35/63/35 
# 20 polygons

#
# object Box001
#

v  -21.0315 0.0000 -20.9166
v  -21.0315 0.0000 20.9166
v  21.0315 0.0000 20.9166
v  21.0315 0.0000 -20.9166
v  21.0315 -1.8640 20.9166
v  -21.0315 -1.8640 20.9166
v  -21.0315 -1.8640 -20.9166
v  21.0315 -1.8640 -20.9166
# 8 vertices

vn -0.5774 0.5774 -0.5774
vn -0.5774 0.5774 0.5774
vn 0.5774 0.5774 0.5774
vn 0.5774 0.5774 -0.5774
vn 0.5774 -0.5774 0.5774
vn -0.5774 -0.5774 0.5774
vn -0.5774 -0.5774 -0.5774
vn 0.5774 -0.5774 -0.5774
# 8 vertex normals

vt 0.0000 1.0000 0.0000
vt 0.0000 0.0000 0.0000
vt 1.0000 0.0000 0.0000
vt 1.0000 1.0000 0.0000
# 4 texture coords

o Box001
g Box001
usemtl wire_176026026
s 2
f 37/64/37 38/65/38 39/66/39 40/67/40 
s 4
f 41/65/41 42/66/42 43/67/43 44/64/44 
s 8
f 39/66/39 38/65/38 42/64/42 41/67/41 
s 16
f 40/66/40 39/65/39 41/64/41 44/67/44 
s 32
f 37/66/37 40/65/40 44/64/44 43/67/43 
s 64
f 38/66/38 37/65/37 43/64/43 42/67/42 
# 6 polygons

#
# object Sphere002
#

v  0.0000 5.2082 -0.0000
v  -0.0000 4.4727 -12.8134
v  -9.0604 5.7891 -9.0604
v  -12.8134 4.4727 0.0000
v  -9.0604 5.7891 9.0604
v  0.0000 4.4727 12.8134
v  9.0604 5.7891 9.0604
v  12.8134 4.4727 0.0000
v  9.0604 5.7891 -9.0604
v  -0.0000 2.6970 -18.1209
v  -12.8134 4.0135 -12.8134
v  -18.1209 2.6970 0.0000
v  -12.8134 4.0135 12.8134
v  0.0000 2.6970 18.1209
v  12.8134 4.0135 12.8134
v  18.1209 2.6970 0.0000
v  12.8134 4.0135 -12.8134
v  -12.8134 2.6970 -12.8134
v  -12.8134 2.6970 12.8134
v  12.8134 2.6970 12.8134
v  12.8134 2.6970 -12.8134
v  0.0000 2.6970 -0.0000
# 22 vertices

vn -0.0000 1.0000 -0.0000
vn 0.0000 0.5475 -0.8368
vn -0.2876 0.9135 -0.2876
vn -0.8368 0.5475 0.0000
vn -0.2876 0.9135 0.2876
vn 0.0000 0.5475 0.8368
vn 0.2876 0.9135 0.2876
vn 0.8368 0.5475 0.0000
vn 0.2876 0.9135 -0.2876
vn 0.0000 -0.8933 -0.4495
vn -0.6842 0.2524 -0.6842
vn -0.7668 -0.6419 -0.0000
vn -0.6842 0.2524 0.6842
vn 0.0000 -0.8933 0.4495
vn 0.6842 0.2524 0.6842
vn 0.3974 0.9176 0.0000
vn 0.6842 0.2524 -0.6842
vn 0.0000 1.0000 -0.0000
vn -0.5490 -0.6303 -0.5490
vn 0.0000 -1.0000 -0.0000
vn -0.5490 -0.6303 0.5490
vn 1.0000 0.0000 -0.0000
vn 0.5490 -0.6303 0.5490
vn 0.5490 -0.6303 -0.5490
# 24 vertex normals

vt 0.0000 1.0000 0.0000
vt 0.0000 0.7500 0.0000
vt 0.1250 0.7500 0.0000
vt 0.1250 1.0000 0.0000
vt 0.2500 0.7500 0.0000
vt 0.2500 1.0000 0.0000
vt 0.3750 0.7500 0.0000
vt 0.3750 1.0000 0.0000
vt 0.5000 0.7500 0.0000
vt 0.5000 1.0000 0.0000
vt 0.6250 0.7500 0.0000
vt 0.6250 1.0000 0.0000
vt 0.7500 0.7500 0.0000
vt 0.7500 1.0000 0.0000
vt 0.8750 0.7500 0.0000
vt 0.8750 1.0000 0.0000
vt 1.0000 0.7500 0.0000
vt 0.0000 0.5000 0.0000
vt 0.1250 0.5000 0.0000
vt 0.2500 0.5000 0.0000
vt 0.3750 0.5000 0.0000
vt 0.5000 0.5000 0.0000
vt 0.6250 0.5000 0.0000
vt 0.7500 0.5000 0.0000
vt 0.8750 0.5000 0.0000
vt 1.0000 0.5000 0.0000
vt 0.0000 0.2500 0.0000
vt 0.1250 0.2500 0.0000
vt 0.2500 0.2500 0.0000
vt 0.3750 0.2500 0.0000
vt 0.5000 0.2500 0.0000
vt 0.6250 0.2500 0.0000
vt 0.7500 0.2500 0.0000
vt 0.8750 0.2500 0.0000
vt 1.0000 0.2500 0.0000
vt 0.0000 0.0000 0.0000
vt 0.1250 0.0000 0.0000
vt 0.2500 0.0000 0.0000
vt 0.3750 0.0000 0.0000
vt 0.5000 0.0000 0.0000
vt 0.6250 0.0000 0.0000
vt 0.7500 0.0000 0.0000
vt 0.8750 0.0000 0.0000
# 43 texture coords

o Sphere002
g Sphere002
usemtl wire_135059008
s 1
f 45/68/45 46/69/46 47/70/47 
s 2
f 45/71/45 47/70/47 48/72/48 
s 4
f 45/73/45 48/72/48 49/74/49 
s 8
f 45/75/45 49/74/49 50/76/50 
s 16
f 45/77/45 50/76/50 51/78/51 
s 32
f 45/79/45 51/78/51 52/80/52 
s 64
f 45/81/45 52/80/52 53/82/53 
s 128
f 45/83/45 53/82/53 46/84/46 
s 4
f 46/69/46 54/85/54 55/86/55 47/70/47 
s 16
f 47/70/47 55/86/55 56/87/56 48/72/48 
f 48/72/48 56/87/56 57/88/57 49/74/49 
s 1
f 49/74/49 57/88/57 58/89/58 50/76/50 
f 50/76/50 58/89/58 59/90/59 51/78/51 
s 2
f 51/78/51 59/90/59 60/91/60 52/80/52 
f 52/80/52 60/91/60 61/92/61 53/82/53 
s 4
f 53/82/53 61/92/61 54/93/54 46/84/46 
s 1
f 54/85/54 54/94/62 62/95/63 55/86/55 
s 2
f 55/86/55 62/95/63 56/96/64 56/87/56 
s 4
f 56/87/56 56/96/64 63/97/65 57/88/57 
s 2
f 57/88/57 63/97/65 58/98/66 58/89/58 
s 4
f 58/89/58 58/98/66 64/99/67 59/90/59 
s 8
f 59/90/59 64/99/67 60/100/64 60/91/60 
s 1
f 60/91/60 60/100/64 65/101/68 61/92/61 
s 8
f 61/92/61 65/101/68 54/102/62 54/93/54 
s 16
f 66/103/64 62/95/63 54/94/62 
f 66/104/64 56/96/64 62/95/63 
f 66/105/64 63/97/65 56/96/64 
f 66/106/64 58/98/66 63/97/65 
f 66/107/64 64/99/67 58/98/66 
f 66/108/64 60/100/64 64/99/67 
f 66/109/64 65/101/68 60/100/64 
f 66/110/64 54/102/62 65/101/68 
# 16 polygons - 16 triangles

