# 3ds Max Wavefront OBJ Exporter v0.97b - (c)2007 guruware
# File Created: 30.10.2018 19:11:54

mtllib Elavator Hand.mtl

#
# object Box301
#

v  -2.4030 -0.4473 0.7698
v  -0.8871 -0.4473 0.7698
v  -0.8871 -0.4473 7.0273
v  -2.4030 -0.4473 7.0273
v  -2.4030 2.7264 0.7698
v  -2.4030 2.7264 7.0273
v  -0.8871 2.7264 7.0273
v  -0.8871 2.7264 0.7698
v  -2.4030 -0.0032 7.0273
v  -2.4030 -0.0032 0.7698
v  -2.4030 -0.4473 8.9114
v  -0.8871 -0.4473 9.9222
v  -0.8871 -0.0032 9.9222
v  -2.4030 -0.0032 8.9114
v  2.6537 -0.4473 7.0273
v  2.6537 -0.4473 0.7698
v  2.6537 -0.0032 0.7698
v  2.6537 -0.0032 7.0273
v  1.1863 -0.4473 0.7698
v  1.1863 -0.0032 0.7698
v  -2.4030 2.2426 7.0273
v  -2.4030 2.2426 0.7698
v  2.6537 2.2426 8.9113
v  2.6537 2.7264 8.9113
v  1.1863 2.7264 9.9222
v  1.1863 2.2426 9.9222
v  2.6537 2.2426 0.7698
v  2.6537 2.7264 0.7698
v  2.6537 2.7264 7.0273
v  2.6537 2.2426 7.0273
v  -0.8871 2.2426 0.7698
v  1.1863 2.2426 7.0273
v  1.1863 -0.0032 7.0273
v  -0.8871 -0.0032 0.7698
v  1.1863 2.7264 7.0273
v  -2.4030 2.2426 8.9114
v  -2.4030 2.7264 8.9114
v  -0.8871 2.2426 7.0273
v  -0.8871 2.2426 9.9222
v  2.6537 -0.0032 8.9113
v  2.6537 -0.4473 8.9113
v  1.1863 -0.0032 9.9222
v  1.1863 -0.4473 7.0273
v  1.1863 2.7264 0.7698
v  1.1863 -0.4473 9.9222
v  -0.8871 2.7264 9.9222
v  1.1863 2.2426 0.7698
v  -0.8871 -0.0032 7.0273
# 48 vertices

vn -0.5774 -0.5774 -0.5774
vn -0.0000 -0.7071 -0.7071
vn 0.0000 -1.0000 -0.0000
vn -0.7071 -0.7071 0.0000
vn -0.5774 0.5774 -0.5774
vn -0.7071 0.7071 0.0000
vn 0.0000 1.0000 -0.0000
vn -0.0000 0.7071 -0.7071
vn -0.9045 0.3015 0.3015
vn -0.7071 0.0000 -0.7071
vn -0.6954 -0.6148 0.3721
vn -0.2209 -0.6474 0.7295
vn -0.2209 0.6474 0.7295
vn -0.6954 0.6147 0.3722
vn 0.7071 -0.7071 -0.0000
vn 0.5774 -0.5774 -0.5774
vn 0.7071 0.0000 -0.7071
vn 0.9045 0.3015 0.3015
vn -0.0000 0.0000 -1.0000
vn -0.9045 -0.3015 0.3015
vn 0.6974 -0.6159 0.3664
vn 0.6974 0.6159 0.3664
vn 0.2268 0.6460 0.7289
vn 0.2268 -0.6460 0.7289
vn 0.5774 0.5774 -0.5774
vn 0.7071 0.7071 -0.0000
vn 0.9045 -0.3015 0.3015
vn 0.0000 -0.7071 0.7071
vn 0.0000 0.7071 0.7071
vn -0.6954 0.6148 0.3721
# 30 vertex normals

vt 1.0000 0.0000 0.0000
vt 1.0000 0.3027 0.0000
vt 0.0000 0.3027 0.0000
vt 0.0000 0.0000 0.0000
vt 1.0000 0.1028 0.0000
vt 0.0000 0.1028 0.0000
vt 0.3027 0.0000 0.0000
vt 0.3027 0.1028 0.0000
vt 0.2873 0.0000 0.0000
vt 0.2873 0.1028 0.0000
vt 1.0000 0.8690 0.0000
vt 1.0000 1.0000 0.0000
vt 0.0000 1.0000 0.0000
vt 0.0000 0.8690 0.0000
vt 0.7127 1.0000 0.0000
vt 0.7127 0.8690 0.0000
vt 0.6973 1.0000 0.0000
vt 0.6973 0.8690 0.0000
vt 0.7127 0.1028 0.0000
vt 0.6973 0.1028 0.0000
vt 0.3027 0.8690 0.0000
vt 1.0000 0.7127 0.0000
vt 0.0000 0.7127 0.0000
vt 0.7127 0.0000 0.0000
vt 0.6973 0.0000 0.0000
vt 0.3027 1.0000 0.0000
vt 0.2873 1.0000 0.0000
vt 0.2873 0.8690 0.0000
# 28 texture coords

o Box301
g Box301
usemtl wire_086086086
s 1
f 1/1/1 2/2/2 3/3/3 4/4/4 
f 5/4/5 6/1/6 7/2/7 8/3/8 
s 2
f 1/4/1 4/1/4 9/5/9 10/6/10 
s 4
f 11/4/11 12/7/12 13/8/13 14/6/14 
s 2
f 15/4/15 16/1/16 17/5/17 18/6/18 
s 4
f 16/4/16 19/9/2 20/10/19 17/6/17 
s 2
f 21/11/20 6/12/6 5/13/5 22/14/10 
s 4
f 23/11/21 24/12/22 25/15/23 26/16/24 
s 2
f 27/11/17 28/12/25 29/13/26 30/14/27 
s 4
f 22/11/10 5/12/5 8/17/8 31/18/19 
s 2
f 9/5/9 21/11/20 22/14/10 10/6/10 
s 1
f 18/5/18 30/11/27 32/16/28 33/19/29 
s 2
f 17/5/17 27/11/17 30/14/27 18/6/18 
s 4
f 10/5/10 22/11/10 31/18/19 34/20/19 
s 1
f 29/12/26 35/15/7 25/15/23 24/12/22 
s 2
f 6/13/6 21/14/20 36/14/11 37/13/30 
s 8
f 21/14/20 38/21/28 39/21/12 36/14/11 
s 2
f 30/11/27 29/12/26 24/12/22 23/11/21 
s 1
f 4/4/4 3/7/3 12/7/12 11/4/11 
s 2
f 15/1/15 18/5/18 40/5/22 41/1/21 
s 8
f 18/5/18 33/19/29 42/19/23 40/5/22 
s 2
f 9/6/9 4/4/4 11/4/11 14/6/14 
s 1
f 19/22/2 16/12/16 15/13/15 43/23/3 
f 35/22/7 29/12/26 28/13/25 44/23/8 
s 4
f 45/24/24 41/1/21 40/5/22 42/19/23 
f 2/25/2 1/1/1 10/5/10 34/20/19 
f 46/26/13 37/13/30 36/14/11 39/21/12 
f 44/27/8 28/13/25 27/14/17 47/28/19 
s 1
f 38/21/28 21/14/20 9/6/9 48/8/29 
s 4
f 47/28/19 27/14/17 17/6/17 20/10/19 
s 1
f 7/26/7 6/13/6 37/13/30 46/26/13 
s 8
f 32/16/28 30/11/27 23/11/21 26/16/24 
s 1
f 43/24/3 15/1/15 41/1/21 45/24/24 
s 8
f 48/8/29 9/6/9 14/6/14 13/8/13 
s 1
f 2/2/2 19/22/2 43/23/3 3/3/3 
f 7/2/7 35/22/7 44/23/8 8/3/8 
s 4
f 12/7/12 45/24/24 42/19/23 13/8/13 
f 19/9/2 2/25/2 34/20/19 20/10/19 
f 25/15/23 46/26/13 39/21/12 26/16/24 
f 8/17/8 44/27/8 47/28/19 31/18/19 
s 1
f 32/16/28 38/21/28 48/8/29 33/19/29 
s 4
f 31/18/19 47/28/19 20/10/19 34/20/19 
s 1
f 35/15/7 7/26/7 46/26/13 25/15/23 
s 8
f 38/21/28 32/16/28 26/16/24 39/21/12 
s 1
f 3/7/3 43/24/3 45/24/24 12/7/12 
s 8
f 33/19/29 48/8/29 13/8/13 42/19/23 
# 46 polygons

