# 3ds Max Wavefront OBJ Exporter v0.97b - (c)2007 guruware
# File Created: 31.10.2018 16:12:59

mtllib Jump-pad pad.mtl

#
# object Object003
#

v  -0.0000 0.4271 -0.0000
v  8.3576 0.4271 -0.0000
v  7.8536 0.4271 -2.8585
v  6.4023 0.4271 -5.3722
v  4.1788 0.4271 -7.2379
v  1.4513 0.4271 -8.2306
v  -1.4513 0.4271 -8.2306
v  -4.1788 0.4271 -7.2379
v  -6.4023 0.4271 -5.3722
v  -7.8536 0.4271 -2.8585
v  -8.3576 0.4271 -0.0000
v  -7.8536 0.4271 2.8585
v  -6.4023 0.4271 5.3722
v  -4.1788 0.4271 7.2379
v  -1.4513 0.4271 8.2306
v  1.4513 0.4271 8.2306
v  4.1788 0.4271 7.2379
v  6.4023 0.4271 5.3722
v  7.8536 0.4271 2.8585
v  7.8536 -0.4271 -2.8585
v  8.3576 -0.4271 -0.0000
v  -0.0000 -0.4271 -0.0000
v  6.4023 -0.4271 -5.3722
v  4.1788 -0.4271 -7.2379
v  1.4513 -0.4271 -8.2306
v  -1.4513 -0.4271 -8.2306
v  -4.1788 -0.4271 -7.2379
v  -6.4023 -0.4271 -5.3722
v  -7.8536 -0.4271 -2.8585
v  -8.3576 -0.4271 -0.0000
v  -7.8536 -0.4271 2.8585
v  -6.4023 -0.4271 5.3722
v  -4.1788 -0.4271 7.2379
v  -1.4513 -0.4271 8.2306
v  1.4513 -0.4271 8.2306
v  4.1788 -0.4271 7.2379
v  6.4023 -0.4271 5.3722
v  7.8536 -0.4271 2.8585
# 38 vertices

vn 0.0000 1.0000 0.0000
vn 0.7423 0.6700 0.0000
vn 0.6976 0.6700 -0.2539
vn 0.5686 0.6701 -0.4771
vn 0.3711 0.6701 -0.6428
vn 0.1289 0.6701 -0.7310
vn -0.1289 0.6700 -0.7311
vn -0.3712 0.6700 -0.6429
vn -0.5687 0.6700 -0.4772
vn -0.6976 0.6700 -0.2539
vn -0.7423 0.6700 -0.0000
vn -0.6976 0.6700 0.2539
vn -0.5687 0.6700 0.4772
vn -0.3712 0.6700 0.6429
vn -0.1289 0.6700 0.7311
vn 0.1289 0.6700 0.7311
vn 0.3712 0.6700 0.6429
vn 0.5687 0.6700 0.4772
vn 0.6976 0.6700 0.2539
vn 0.6976 -0.6700 -0.2539
vn 0.7423 -0.6700 0.0000
vn -0.0000 -1.0000 -0.0000
vn 0.5686 -0.6701 -0.4771
vn 0.3711 -0.6701 -0.6428
vn 0.1289 -0.6701 -0.7310
vn -0.1289 -0.6700 -0.7311
vn -0.3712 -0.6700 -0.6429
vn -0.5687 -0.6700 -0.4772
vn -0.6976 -0.6700 -0.2539
vn -0.7423 -0.6700 -0.0000
vn -0.6976 -0.6700 0.2539
vn -0.5687 -0.6700 0.4772
vn -0.3712 -0.6700 0.6429
vn -0.1289 -0.6700 0.7311
vn 0.1289 -0.6700 0.7311
vn 0.3712 -0.6700 0.6429
vn 0.5687 -0.6700 0.4772
vn 0.6976 -0.6700 0.2539
# 38 vertex normals

vt 0.5000 1.0000 0.0000
vt 0.7500 1.0000 0.5000
vt 0.8056 1.0000 0.5000
vt 0.8611 1.0000 0.5000
vt 0.9167 1.0000 0.5000
vt 0.9722 1.0000 0.5000
vt -0.0278 1.0000 0.5000
vt 0.0278 1.0000 0.5000
vt 0.0833 1.0000 0.5000
vt 0.1389 1.0000 0.5000
vt 0.1944 1.0000 0.5000
vt 0.2500 1.0000 0.5000
vt 0.3056 1.0000 0.5000
vt 0.3611 1.0000 0.5000
vt 0.4167 1.0000 0.5000
vt 0.4722 1.0000 0.5000
vt 0.5278 1.0000 0.5000
vt 0.5833 1.0000 0.5000
vt 0.6389 1.0000 0.5000
vt 0.6944 1.0000 0.5000
# 20 texture coords

o Object003
g Object003
usemtl wire_213154229
s 1
f 1/1/1 2/2/2 3/3/3 
f 1/1/1 3/3/3 4/4/4 
f 1/1/1 4/4/4 5/5/5 
f 1/1/1 5/5/5 6/6/6 
f 1/1/1 6/7/6 7/8/7 
f 1/1/1 7/8/7 8/9/8 
f 1/1/1 8/9/8 9/10/9 
f 1/1/1 9/10/9 10/11/10 
f 1/1/1 10/11/10 11/12/11 
f 1/1/1 11/12/11 12/13/12 
f 1/1/1 12/13/12 13/14/13 
f 1/1/1 13/14/13 14/15/14 
f 1/1/1 14/15/14 15/16/15 
f 1/1/1 15/16/15 16/17/16 
f 1/1/1 16/17/16 17/18/17 
f 1/1/1 17/18/17 18/19/18 
f 1/1/1 18/19/18 19/20/19 
f 1/1/1 19/20/19 2/2/2 
f 20/3/20 21/2/21 22/1/22 
f 23/4/23 20/3/20 22/1/22 
f 24/5/24 23/4/23 22/1/22 
f 25/6/25 24/5/24 22/1/22 
f 26/8/26 25/7/25 22/1/22 
f 27/9/27 26/8/26 22/1/22 
f 28/10/28 27/9/27 22/1/22 
f 29/11/29 28/10/28 22/1/22 
f 30/12/30 29/11/29 22/1/22 
f 31/13/31 30/12/30 22/1/22 
f 32/14/32 31/13/31 22/1/22 
f 33/15/33 32/14/32 22/1/22 
f 34/16/34 33/15/33 22/1/22 
f 35/17/35 34/16/34 22/1/22 
f 36/18/36 35/17/35 22/1/22 
f 37/19/37 36/18/36 22/1/22 
f 38/20/38 37/19/37 22/1/22 
f 21/2/21 38/20/38 22/1/22 
s 2
f 3/3/3 2/2/2 21/2/21 20/3/20 
f 4/4/4 3/3/3 20/3/20 23/4/23 
f 5/5/5 4/4/4 23/4/23 24/5/24 
f 6/6/6 5/5/5 24/5/24 25/6/25 
f 7/8/7 6/7/6 25/7/25 26/8/26 
f 8/9/8 7/8/7 26/8/26 27/9/27 
f 9/10/9 8/9/8 27/9/27 28/10/28 
f 10/11/10 9/10/9 28/10/28 29/11/29 
f 11/12/11 10/11/10 29/11/29 30/12/30 
f 12/13/12 11/12/11 30/12/30 31/13/31 
f 13/14/13 12/13/12 31/13/31 32/14/32 
f 14/15/14 13/14/13 32/14/32 33/15/33 
f 15/16/15 14/15/14 33/15/33 34/16/34 
f 16/17/16 15/16/15 34/16/34 35/17/35 
f 17/18/17 16/17/16 35/17/35 36/18/36 
f 18/19/18 17/18/17 36/18/36 37/19/37 
f 19/20/19 18/19/18 37/19/37 38/20/38 
f 2/2/2 19/20/19 38/20/38 21/2/21 
# 18 polygons - 36 triangles

