# 3ds Max Wavefront OBJ Exporter v0.97b - (c)2007 guruware
# File Created: 30.10.2018 16:34:25

mtllib Characterbox.mtl

#
# object Box187
#

v  -5.0714 -5.0714 5.0714
v  -5.0714 -5.0714 -5.0714
v  -3.7218 -5.0714 -5.0714
v  -3.7218 -5.0714 5.0714
v  -5.0714 5.0714 5.0714
v  -3.7218 5.0714 5.0714
v  -3.7218 5.0714 -5.0714
v  -5.0714 5.0714 -5.0714
v  -3.7218 1.1195 5.0714
v  -5.0714 1.1195 5.0714
v  5.0714 -5.0714 5.0714
v  5.0714 -5.0714 -5.0714
v  5.0714 1.1195 -5.0714
v  5.0714 1.1195 5.0714
v  3.6744 -5.0714 -5.0714
v  3.6744 1.1195 -5.0714
v  -5.0714 1.1195 -5.0714
v  5.0714 2.9864 5.0714
v  5.0714 5.0714 5.0714
v  3.6744 5.0714 5.0714
v  3.6744 2.9864 5.0714
v  5.0714 2.9864 -5.0714
v  5.0714 5.0714 -5.0714
v  -5.0714 2.9864 -5.0714
v  -3.7218 2.9864 -5.0714
v  -5.0714 2.9864 5.0714
v  3.6744 1.1195 5.0714
v  -3.7218 1.1195 -5.0714
v  3.6744 -5.0714 5.0714
v  3.6744 5.0714 -5.0714
v  -3.7218 2.9864 5.0714
v  3.6744 2.9864 -5.0714
v  -0.8383 -5.0714 -5.0714
v  -0.8383 -5.0714 5.0714
v  -0.8383 5.0714 5.0714
v  -0.8383 5.0714 -5.0714
v  -0.8383 1.1195 5.0714
v  0.7893 -5.0714 -5.0714
v  0.7893 1.1195 -5.0714
v  0.7893 5.0714 5.0714
v  0.7893 2.9864 5.0714
v  -0.8383 2.9864 -5.0714
v  0.7893 1.1195 5.0714
v  -3.7218 2.9864 -3.8863
v  -0.8383 2.9864 -3.8863
v  -0.8383 1.1195 -3.8863
v  -3.7218 1.1195 -3.8863
v  0.7893 -5.0714 5.0714
v  0.7893 5.0714 -5.0714
v  -0.8383 1.1195 -5.0714
v  -0.8383 2.9864 5.0714
v  0.7893 2.9864 -5.0714
v  0.7893 2.9864 -3.8863
v  3.6744 2.9864 -3.8863
v  3.6744 1.1195 -3.8863
v  0.7893 1.1195 -3.8863
# 56 vertices

vn -0.5774 -0.5774 0.5774
vn -0.5774 -0.5774 -0.5774
vn 0.0000 -0.7071 -0.7071
vn 0.0000 -0.7071 0.7071
vn -0.5774 0.5774 0.5774
vn 0.0000 0.7071 0.7071
vn 0.0000 0.7071 -0.7071
vn -0.5774 0.5774 -0.5774
vn 0.0000 0.0000 1.0000
vn -0.7071 0.0000 0.7071
vn 0.5774 -0.5774 0.5774
vn 0.5774 -0.5774 -0.5774
vn 0.7071 0.0000 -0.7071
vn 0.7071 0.0000 0.7071
vn -0.3015 0.3015 -0.9045
vn -0.7071 0.0000 -0.7071
vn 0.5774 0.5774 0.5774
vn 0.5774 0.5774 -0.5774
vn 0.3015 -0.3015 -0.9045
vn 0.3015 0.3015 -0.9045
vn -0.3015 -0.3015 -0.9045
# 21 vertex normals

vt 1.0000 0.0000 0.0000
vt 1.0000 1.0000 0.0000
vt 0.8682 1.0000 0.0000
vt 0.8682 0.0000 0.0000
vt 0.0000 0.0000 0.0000
vt 0.1318 0.0000 0.0000
vt 0.1318 1.0000 0.0000
vt 0.0000 1.0000 0.0000
vt 0.1318 0.6434 0.0000
vt 0.0000 0.6434 0.0000
vt 1.0000 0.6434 0.0000
vt 0.1390 0.0000 0.0000
vt 0.1390 0.6434 0.0000
vt 1.0000 0.8819 0.0000
vt 0.8610 1.0000 0.0000
vt 0.8610 0.8819 0.0000
vt 0.0000 0.8819 0.0000
vt 0.8682 0.8819 0.0000
vt 0.8610 0.6434 0.0000
vt 0.8682 0.6434 0.0000
vt 0.1390 1.0000 0.0000
vt 0.8610 0.0000 0.0000
vt 0.1318 0.8819 0.0000
vt 0.1390 0.8819 0.0000
vt 0.6251 1.0000 0.0000
vt 0.6251 0.0000 0.0000
vt 0.3749 0.0000 0.0000
vt 0.3749 1.0000 0.0000
vt 0.3749 0.6434 0.0000
vt 0.3821 0.0000 0.0000
vt 0.3821 0.6434 0.0000
vt 0.6179 1.0000 0.0000
vt 0.6179 0.8819 0.0000
vt 0.6251 0.8819 0.0000
vt 0.6179 0.6434 0.0000
vt 0.6251 0.6434 0.0000
vt 0.3821 1.0000 0.0000
vt 0.6179 0.0000 0.0000
vt 0.3749 0.8819 0.0000
vt 0.3821 0.8819 0.0000
# 40 texture coords

o Box187
g Box187
usemtl wire_015015015
s 1
f 1/1/1 2/2/2 3/3/3 4/4/4 
f 5/5/5 6/6/6 7/7/7 8/8/8 
s 2
f 1/5/1 4/6/4 9/9/9 10/10/10 
s 4
f 11/5/11 12/1/12 13/11/13 14/10/14 
s 2
f 12/5/12 15/12/3 16/13/15 13/10/13 
s 4
f 2/5/2 1/1/1 10/11/10 17/10/16 
s 2
f 18/14/14 19/2/17 20/15/6 21/16/9 
s 4
f 22/14/13 23/2/18 19/8/17 18/17/14 
s 2
f 24/14/16 8/2/8 7/3/7 25/18/19 
s 4
f 26/14/10 5/2/5 8/8/8 24/17/16 
s 2
f 14/11/14 18/14/14 21/16/9 27/19/9 
s 4
f 13/11/13 22/14/13 18/17/14 14/10/14 
s 2
f 17/11/16 24/14/16 25/18/19 28/20/20 
s 4
f 10/11/10 26/14/10 24/17/16 17/10/16 
s 1
f 15/21/3 12/8/12 11/5/11 29/12/4 
f 20/22/6 19/1/17 23/2/18 30/15/7 
s 2
f 29/22/4 11/1/11 14/11/14 27/19/9 
f 3/4/3 2/1/2 17/11/16 28/20/20 
f 6/7/6 5/8/5 26/17/10 31/23/9 
f 30/21/7 23/8/18 22/17/13 32/24/21 
f 31/23/9 26/17/10 10/10/10 9/9/9 
f 32/24/21 22/17/13 13/10/13 16/13/15 
s 1
f 3/3/3 33/25/3 34/26/4 4/4/4 
f 6/6/6 35/27/6 36/28/7 7/7/7 
s 2
f 4/6/4 34/27/4 37/29/9 9/9/9 
f 15/12/3 38/30/3 39/31/20 16/13/15 
f 20/15/6 40/32/6 41/33/9 21/16/9 
f 7/3/7 36/25/7 42/34/21 25/18/19 
f 21/16/9 41/33/9 43/35/9 27/19/9 
f 44/18/12 45/34/2 46/36/8 47/20/18 
s 1
f 33/25/3 38/37/3 48/30/4 34/26/4 
f 38/37/3 15/21/3 29/12/4 48/30/4 
f 35/27/6 40/38/6 49/32/7 36/28/7 
f 40/38/6 20/22/6 30/15/7 49/32/7 
s 2
f 34/27/4 48/38/4 43/35/9 37/29/9 
f 48/38/4 29/22/4 27/19/9 43/35/9 
f 38/30/3 33/26/3 50/36/15 39/31/20 
f 33/26/3 3/4/3 28/20/20 50/36/15 
f 40/32/6 35/28/6 51/39/9 41/33/9 
f 35/28/6 6/7/6 31/23/9 51/39/9 
f 36/25/7 49/37/7 52/40/19 42/34/21 
f 49/37/7 30/21/7 32/24/21 52/40/19 
f 41/33/9 51/39/9 37/29/9 43/35/9 
f 51/39/9 31/23/9 9/9/9 37/29/9 
f 42/34/21 52/40/19 39/31/20 50/36/15 
f 53/40/12 54/24/2 55/13/8 56/31/18 
s off
f 28/20/20 25/18/19 44/18/12 47/20/18 
f 25/18/19 42/34/21 45/34/2 44/18/12 
f 42/34/21 50/36/15 46/36/8 45/34/2 
f 50/36/15 28/20/20 47/20/18 46/36/8 
f 32/24/21 16/13/15 55/13/8 54/24/2 
f 16/13/15 39/31/20 56/31/18 55/13/8 
f 39/31/20 52/40/19 53/40/12 56/31/18 
f 52/40/19 32/24/21 54/24/2 53/40/12 
# 54 polygons

