# 3ds Max Wavefront OBJ Exporter v0.97b - (c)2007 guruware
# File Created: 31.10.2018 19:55:27

mtllib Push Block.mtl

#
# object Box377
#

v  70.0031 -5.8453 -10.3767
v  70.0031 -5.8453 10.3767
v  -70.0031 -5.8453 10.3767
v  -70.0031 -5.8453 -10.3767
v  70.0031 5.8452 -10.3767
v  -70.0031 5.8452 -10.3767
v  -70.0031 5.8452 10.3767
v  70.0031 5.8452 10.3767
# 8 vertices

vn 0.5774 -0.5774 -0.5774
vn 0.5774 -0.5774 0.5774
vn -0.5774 -0.5774 0.5774
vn -0.5774 -0.5774 -0.5774
vn 0.5774 0.5774 -0.5774
vn -0.5774 0.5774 -0.5774
vn -0.5774 0.5774 0.5774
vn 0.5774 0.5774 0.5774
# 8 vertex normals

vt 1.1724 0.5000 0.0000
vt 1.2433 0.5000 0.0000
vt 1.2433 0.9783 0.0000
vt 1.1724 0.9783 0.0000
vt 1.1325 0.5000 0.0000
vt 1.1325 0.9783 0.0000
vt 1.0616 0.9783 0.0000
vt 1.0616 0.5000 0.0000
vt 1.1325 1.0183 0.0000
vt 1.0616 1.0183 0.0000
vt 1.2833 0.5000 0.0000
vt 1.2833 0.9783 0.0000
vt 1.0616 0.4601 0.0000
vt 1.1325 0.4601 0.0000
# 14 texture coords

o Box377
g Box377
usemtl wire_015015015
s 2
f 1/1/1 2/2/2 3/3/3 4/4/4 
s 4
f 5/5/5 6/6/6 7/7/7 8/8/8 
s 8
f 1/1/1 4/4/4 6/6/6 5/5/5 
s 16
f 4/9/4 3/10/3 7/7/7 6/6/6 
s 32
f 3/3/3 2/2/2 8/11/8 7/12/7 
s 64
f 2/13/2 1/14/1 5/5/5 8/8/8 
# 6 polygons

