# 3ds Max Wavefront OBJ Exporter v0.97b - (c)2007 guruware
# File Created: 30.10.2018 16:55:00

mtllib icecream island.mtl

#
# object Cylinder008
#

v  8.6185 12.1898 -0.2185
v  2.6700 14.4264 -7.6410
v  2.9677 19.2352 -8.4323
v  8.8195 19.2352 -1.4584
v  0.9423 10.8486 -8.1627
v  -0.6944 19.2352 -10.5848
v  -6.7435 14.4991 -9.9682
v  -8.2776 13.3040 -7.3729
v  -9.5139 19.2352 -9.1264
v  -9.9524 14.4991 -5.2120
v  -10.3034 19.2352 -2.5218
v  -0.9616 6.0694 1.1802
v  -8.0859 14.4264 1.5314
v  -8.8195 19.2352 1.4584
v  -5.4413 14.4264 4.9014
v  -3.4402 23.5075 9.7747
v  4.9729 24.0440 -8.8647
v  10.2236 24.0440 -1.6906
v  -0.8049 24.0440 -12.2699
v  -8.5035 24.0440 -12.6980
v  -8.9314 24.0440 -10.4754
v  -10.4502 24.0440 -3.5388
v  -9.3411 23.5075 0.9059
v  -1.7075 11.3009 7.4893
v  4.2727 19.2352 11.4606
v  5.6057 23.5075 14.0631
v  9.5139 17.8011 9.1264
v  11.0285 22.6099 10.5793
v  12.2233 22.6099 7.1846
v  10.3034 19.2352 2.5218
v  11.9437 24.0440 2.9233
v  2.8000 24.9366 -6.3753
v  4.9935 25.1776 -3.7612
v  1.4273 25.1776 -7.1822
v  -4.7600 24.1886 -5.1603
v  -5.5765 24.1886 -4.4752
v  -5.9628 24.1886 -3.3775
v  -3.8621 24.0440 -0.9453
v  -3.3059 23.5075 0.5467
v  -2.3509 23.5075 1.9727
v  -1.1124 23.5075 3.1608
v  1.6016 23.5075 4.2959
v  2.7497 24.0440 4.1060
v  3.5662 24.0440 3.4209
v  3.9525 24.0440 2.3232
v  3.8621 24.0440 0.9453
v  0.0000 24.0440 -0.0000
v  -4.4595 10.8991 3.9267
v  2.7384 8.8169 -4.9070
v  -4.1701 35.1835 4.7247
v  1.7138 34.6687 4.7247
v  4.7332 35.2962 -0.3127
v  1.8687 36.4384 -5.3501
v  -4.0153 36.9532 -5.3501
v  -7.0347 36.3258 -0.3127
v  -3.7341 33.3899 -4.9329
v  -6.1496 32.8879 -0.9030
v  0.9730 32.9781 -4.9329
v  3.2647 32.0643 -0.9030
v  0.8492 31.5623 3.1269
v  -3.8580 31.9741 3.1269
v  -3.4530 29.8266 -4.5157
v  -5.2646 29.4501 -1.4933
v  0.0774 29.5177 -4.5157
v  1.7961 28.8323 -1.4933
v  -0.0155 28.4559 1.5292
v  -3.5459 28.7647 1.5292
v  -3.1718 26.2632 -4.0985
v  -4.3796 26.0122 -2.0836
v  -0.8183 26.0573 -4.0985
v  0.3276 25.6004 -2.0836
v  -0.8802 25.3494 -0.0686
v  -3.2338 25.5553 -0.0686
v  -2.8907 22.6999 -3.6813
v  -3.4946 22.5744 -2.6738
v  -1.7139 22.5969 -3.6813
v  -1.1410 22.3685 -2.6738
v  -1.7449 22.2430 -1.6664
v  -2.9217 22.3460 -1.6664
v  -2.6095 19.1366 -3.2641
v  1.8987 43.6598 -2.3655
v  1.8519 43.1243 -5.4142
v  -0.0212 43.1695 -4.7440
v  -1.0384 42.9581 -3.0469
v  -0.7239 42.5890 -1.1170
v  0.7753 42.2349 0.1427
v  2.7577 42.0615 0.1427
v  4.2956 42.1499 -1.1170
v  4.6695 42.4587 -3.0469
v  3.7044 42.8436 -4.7440
v  1.6452 40.7618 -7.4042
v  -1.2245 40.8311 -6.3773
v  -2.7830 40.5073 -3.7771
v  -2.3011 39.9417 -0.8203
v  -0.0042 39.3992 1.1096
v  3.0329 39.1335 1.1096
v  5.3891 39.2689 -0.8203
v  5.9620 39.7422 -3.7771
v  4.4834 40.3318 -6.3773
v  1.3754 37.6779 -7.4042
v  -1.1482 37.7388 -6.5011
v  -2.5187 37.4540 -4.2146
v  -2.0949 36.9567 -1.6144
v  -0.0751 36.4796 0.0827
v  2.5957 36.2459 0.0827
v  4.6678 36.3650 -1.6144
v  5.1715 36.7812 -4.2146
v  3.8712 37.2997 -6.5011
v  1.1219 34.7799 -3.9373
v  -3.8499 43.5712 0.9764
v  -3.8967 43.0357 -2.0723
v  -5.7698 43.0809 -1.4021
v  -6.7870 42.8695 0.2950
v  -6.4725 42.5004 2.2250
v  -4.9733 42.1463 3.4846
v  -2.9909 41.9729 3.4846
v  -1.4530 42.0613 2.2250
v  -1.0791 42.3702 0.2950
v  -2.0442 42.7550 -1.4021
v  -4.1034 40.6732 -4.0622
v  -6.9731 40.7425 -3.0354
v  -8.5316 40.4187 -0.4352
v  -8.0497 39.8532 2.5216
v  -5.7528 39.3106 4.4515
v  -2.7157 39.0449 4.4515
v  -0.3595 39.1803 2.5216
v  0.2134 39.6536 -0.4352
v  -1.2652 40.2432 -3.0354
v  -4.3732 37.5893 -4.0622
v  -6.8968 37.6502 -3.1592
v  -8.2673 37.3654 -0.8727
v  -7.8435 36.8681 1.7275
v  -5.8237 36.3910 3.4246
v  -3.1529 36.1573 3.4246
v  -1.0808 36.2764 1.7275
v  -0.5771 36.6926 -0.8727
v  -1.8774 37.2111 -3.1592
v  -4.6267 34.6913 -0.5954
v  0.7926 48.8062 1.6192
v  0.7458 48.2707 -1.4295
v  -1.1273 48.3159 -0.7593
v  -2.1446 48.1045 0.9379
v  -1.8300 47.7354 2.8678
v  -0.3308 47.3813 4.1274
v  1.6515 47.2079 4.1274
v  3.1895 47.2963 2.8678
v  3.5633 47.6051 0.9379
v  2.5983 47.9900 -0.7593
v  0.5391 45.9082 -3.4194
v  -2.3306 45.9775 -2.3925
v  -3.8892 45.6537 0.2076
v  -3.4072 45.0881 3.1644
v  -1.1103 44.5456 5.0943
v  1.9268 44.2799 5.0943
v  4.2830 44.4153 3.1644
v  4.8559 44.8886 0.2076
v  3.3773 45.4782 -2.3925
v  0.2693 42.8243 -3.4194
v  -2.2543 42.8852 -2.5164
v  -3.6249 42.6004 -0.2299
v  -3.2010 42.1031 2.3703
v  -1.1812 41.6260 4.0674
v  1.4896 41.3923 4.0674
v  3.5616 41.5114 2.3703
v  4.0654 41.9276 -0.2299
v  2.7651 42.4461 -2.5164
v  0.0157 39.9263 0.0474
v  -1.0118 45.2285 0.6380
v  -1.0118 44.9870 -0.0255
v  1.6774 44.9870 -0.0255
v  1.6774 45.2285 0.6380
v  -1.0118 51.3565 -1.5924
v  1.6774 51.3565 -1.5924
v  1.6774 51.1150 -2.2559
v  -1.0118 51.1150 -2.2559
v  1.7557 42.5395 4.0346
v  1.7088 42.0040 0.9859
v  -0.1643 42.0492 1.6562
v  -1.1815 41.8378 3.3533
v  -0.8669 41.4687 5.2832
v  0.6322 41.1146 6.5429
v  2.6146 40.9411 6.5429
v  4.1525 41.0295 5.2832
v  4.5264 41.3384 3.3533
v  3.5613 41.7233 1.6562
v  1.5021 39.6415 -1.0040
v  -1.3676 39.7108 0.0229
v  -2.9261 39.3869 2.6231
v  -2.4442 38.8214 5.5798
v  -0.1473 38.2789 7.5097
v  2.8898 38.0132 7.5097
v  5.2461 38.1486 5.5798
v  5.8189 38.6218 2.6231
v  4.3403 39.2114 0.0229
v  1.2323 36.5575 -1.0040
v  -1.2913 36.6185 -0.1009
v  -2.6618 36.3337 2.1856
v  -2.2380 35.8364 4.7857
v  -0.2181 35.3593 6.4829
v  2.4527 35.1256 6.4829
v  4.5247 35.2447 4.7857
v  5.0284 35.6609 2.1856
v  3.7282 36.1793 -0.1009
v  0.9788 33.6596 2.4629
# 204 vertices

vn 0.7996 -0.5946 -0.0847
vn 0.5923 -0.4000 -0.6994
vn 0.4822 -0.4602 -0.7454
vn 0.8284 -0.3844 -0.4075
vn 0.1837 -0.6911 -0.6990
vn 0.0981 -0.4444 -0.8904
vn -0.3600 -0.6273 -0.6906
vn -0.5272 -0.7228 -0.4468
vn -0.8248 -0.1670 -0.5403
vn -0.8926 -0.3339 -0.3029
vn -0.9567 -0.2886 0.0394
vn -0.0654 -0.9917 0.1103
vn -0.8222 -0.4936 -0.2836
vn -0.9155 -0.1846 0.3574
vn -0.6618 -0.4900 0.5674
vn -0.4828 0.4764 0.7348
vn 0.6183 0.3354 -0.7108
vn 0.8551 0.3961 -0.3344
vn 0.0804 0.3862 -0.9189
vn -0.5409 0.4470 -0.7125
vn -0.6200 0.7354 -0.2737
vn -0.7457 0.6466 -0.1607
vn -0.7735 0.5980 0.2100
vn -0.1340 -0.7293 0.6709
vn 0.2887 -0.6867 0.6672
vn 0.1583 0.3488 0.9237
vn 0.5380 -0.6699 0.5117
vn 0.6867 0.3996 0.6072
vn 0.9422 0.2381 0.2356
vn 0.6399 -0.7682 0.0170
vn 0.8679 0.4948 0.0440
vn 0.0514 0.9985 -0.0191
vn 0.0677 0.9977 -0.0103
vn 0.0354 0.9976 -0.0594
vn -0.0270 0.9995 0.0165
vn -0.0029 1.0000 -0.0017
vn -0.0071 0.9998 0.0185
vn -0.0116 0.9893 0.1453
vn 0.0003 0.9929 0.1191
vn -0.0275 0.9994 0.0231
vn -0.0146 0.9994 0.0304
vn -0.1082 0.9926 0.0558
vn -0.0815 0.9955 0.0477
vn 0.0439 0.9984 0.0368
vn 0.0538 0.9984 0.0196
vn -0.0000 0.9977 0.0676
vn -0.0314 0.9971 0.0690
vn -0.7874 -0.5581 -0.2617
vn 0.2973 -0.8900 -0.3458
vn -0.4187 0.2580 0.8707
vn 0.4936 0.2981 0.8170
vn 0.9410 0.3079 0.1405
vn 0.4938 0.4442 -0.7476
vn -0.4159 0.6289 -0.6569
vn -0.8823 0.4706 0.0092
vn -0.5257 -0.1857 -0.8302
vn -0.8937 -0.4023 -0.1986
vn 0.3262 -0.4282 -0.8427
vn 0.7967 -0.6027 0.0443
vn 0.4268 -0.6179 0.6603
vn -0.3910 -0.6846 0.6152
vn -0.0921 -0.9701 -0.2247
vn 0.0790 0.9882 0.1312
vn -0.0458 0.9159 -0.3987
vn -0.2957 0.8991 -0.3227
vn -0.4308 0.8973 -0.0966
vn -0.3790 0.8682 0.3204
vn -0.0024 0.7618 0.6478
vn 0.3362 0.6880 0.6431
vn 0.5350 0.7006 0.4722
vn 0.5869 0.7960 0.1479
vn 0.3376 0.9039 -0.2625
vn -0.1117 0.4250 -0.8983
vn -0.5899 0.4094 -0.6960
vn -0.8958 0.3511 -0.2727
vn -0.8546 0.2019 0.4785
vn -0.2136 0.0463 0.9758
vn 0.4234 -0.0307 0.9054
vn 0.8072 0.0091 0.5902
vn 0.9887 0.1498 -0.0044
vn 0.6182 0.3212 -0.7174
vn -0.1836 -0.4651 -0.8660
vn -0.5627 -0.4340 -0.7036
vn -0.7770 -0.5124 -0.3657
vn -0.7202 -0.6624 0.2063
vn -0.1847 -0.7727 0.6073
vn 0.2774 -0.7662 0.5797
vn 0.5590 -0.7464 0.3611
vn 0.6976 -0.7099 -0.0969
vn 0.3976 -0.5790 -0.7119
vn -0.0829 -0.9865 -0.1410
vn -0.5949 -0.2989 0.7462
vn -0.5775 -0.7489 -0.3251
vn 0.5926 -0.7423 -0.3127
vn 0.5430 -0.3598 0.7587
vn -0.5926 0.7423 0.3127
vn 0.5775 0.7489 0.3251
vn 0.5949 0.2989 -0.7462
vn -0.5430 0.3598 -0.7587
# 99 vertex normals

vt 0.6944 0.6000 1.0000
vt 0.8056 0.6000 1.0000
vt 0.8056 0.8000 1.0000
vt 0.7500 0.8000 1.0000
vt 0.8611 0.6000 1.0000
vt 0.8611 0.8000 1.0000
vt 0.9167 0.6000 1.0000
vt -0.0278 0.6000 1.0000
vt 0.0278 0.6000 1.0000
vt 0.0278 0.8000 1.0000
vt 0.0833 0.6000 1.0000
vt 0.1389 0.8000 1.0000
vt 0.1944 0.6000 1.0000
vt 0.1944 0.8000 1.0000
vt 0.2500 0.6000 1.0000
vt 0.2500 0.8000 1.0000
vt 0.8056 1.0000 1.0000
vt 0.7500 1.0000 1.0000
vt 0.8611 1.0000 1.0000
vt 0.9722 1.0000 1.0000
vt -0.0278 0.8000 1.0000
vt 0.0278 1.0000 1.0000
vt -0.0278 1.0000 1.0000
vt 0.1389 1.0000 1.0000
vt 0.1944 1.0000 1.0000
vt 0.3611 0.8000 1.0000
vt 0.4167 0.8000 1.0000
vt 0.4722 1.0000 1.0000
vt 0.4722 0.8000 1.0000
vt 0.5278 1.0000 1.0000
vt 0.5833 1.0000 1.0000
vt 0.6389 0.8000 1.0000
vt 0.6389 1.0000 1.0000
vt 0.8056 1.0000 0.5000
vt 0.7500 1.0000 0.5000
vt 0.8611 1.0000 0.5000
vt 0.9722 1.0000 0.5000
vt 0.0278 1.0000 0.5000
vt -0.0278 1.0000 0.5000
vt 0.0833 1.0000 0.5000
vt 0.1389 1.0000 0.5000
vt 0.1944 1.0000 0.5000
vt 0.2500 1.0000 0.5000
vt 0.3056 1.0000 0.5000
vt 0.4167 1.0000 0.5000
vt 0.4722 1.0000 0.5000
vt 0.5278 1.0000 0.5000
vt 0.5833 1.0000 0.5000
vt 0.6389 1.0000 0.5000
vt 0.5000 1.0000 0.0000
vt 0.9722 0.6000 1.0000
vt 0.1389 0.6000 1.0000
vt 0.6944 0.8000 1.0000
vt 0.5833 0.8000 1.0000
vt 0.3333 0.0000 0.0000
vt 0.0833 0.0000 -1.0000
vt 0.2500 0.0000 -1.0000
vt 0.6667 0.0000 -0.0000
vt 0.9167 0.0000 1.0000
vt 0.7500 0.0000 1.0000
vt 0.9167 0.2000 0.8000
vt 0.7500 0.2000 0.8000
vt -0.0833 0.0000 1.0000
vt 0.0833 0.0000 1.0000
vt 0.0833 0.2000 0.8000
vt -0.0833 0.2000 0.8000
vt 0.2500 0.0000 1.0000
vt 0.2500 0.2000 0.8000
vt 0.4167 0.0000 1.0000
vt 0.4167 0.2000 0.8000
vt 0.5833 0.0000 1.0000
vt 0.5833 0.2000 0.8000
vt 0.9167 0.4000 0.6000
vt 0.7500 0.4000 0.6000
vt 0.0833 0.4000 0.6000
vt -0.0833 0.4000 0.6000
vt 0.2500 0.4000 0.6000
vt 0.4167 0.4000 0.6000
vt 0.5833 0.4000 0.6000
vt 0.9167 0.6000 0.4000
vt 0.7500 0.6000 0.4000
vt 0.0833 0.6000 0.4000
vt -0.0833 0.6000 0.4000
vt 0.2500 0.6000 0.4000
vt 0.4167 0.6000 0.4000
vt 0.5833 0.6000 0.4000
vt 0.9167 0.8000 0.2000
vt 0.7500 0.8000 0.2000
vt 0.0833 0.8000 0.2000
vt -0.0833 0.8000 0.2000
vt 0.2500 0.8000 0.2000
vt 0.4167 0.8000 0.2000
vt 0.5833 0.8000 0.2000
vt 0.0000 1.0000 0.0000
vt 0.0000 0.7778 0.0000
vt 0.1111 0.7778 0.0000
vt 0.1111 1.0000 0.0000
vt 0.2222 0.7778 0.0000
vt 0.2222 1.0000 0.0000
vt 0.3333 0.7778 0.0000
vt 0.3333 1.0000 0.0000
vt 0.4444 0.7778 0.0000
vt 0.4444 1.0000 0.0000
vt 0.5556 0.7778 0.0000
vt 0.5556 1.0000 0.0000
vt 0.6667 0.7778 0.0000
vt 0.6667 1.0000 0.0000
vt 0.7778 0.7778 0.0000
vt 0.7778 1.0000 0.0000
vt 0.8889 0.7778 0.0000
vt 0.8889 1.0000 0.0000
vt 1.0000 0.7778 0.0000
vt 0.0000 0.5556 0.0000
vt 0.1111 0.5556 0.0000
vt 0.2222 0.5556 0.0000
vt 0.3333 0.5556 0.0000
vt 0.4444 0.5556 0.0000
vt 0.5556 0.5556 0.0000
vt 0.6667 0.5556 0.0000
vt 0.7778 0.5556 0.0000
vt 0.8889 0.5556 0.0000
vt 1.0000 0.5556 0.0000
vt 0.0000 0.3333 0.0000
vt 0.1111 0.3333 0.0000
vt 0.2222 0.3333 0.0000
vt 0.3333 0.3333 0.0000
vt 0.4444 0.3333 0.0000
vt 0.5556 0.3333 0.0000
vt 0.6667 0.3333 0.0000
vt 0.7778 0.3333 0.0000
vt 0.8889 0.3333 0.0000
vt 1.0000 0.3333 0.0000
vt 0.0000 0.1111 0.0000
vt 0.1111 0.1111 0.0000
vt 0.2222 0.1111 0.0000
vt 0.3333 0.1111 0.0000
vt 0.4444 0.1111 0.0000
vt 0.5556 0.1111 0.0000
vt 0.6667 0.1111 0.0000
vt 0.7778 0.1111 0.0000
vt 0.8889 0.1111 0.0000
vt 1.0000 0.0000 0.0000
vt 1.0000 1.0000 0.0000
vt 0.0000 0.0000 0.0000
# 144 texture coords

o Cylinder008
g Cylinder008
usemtl wire_184155229
s 1
f 1/1/1 2/2/2 3/3/3 4/4/4 
s 2
f 2/2/2 5/5/5 6/6/6 3/3/3 
s 1
f 5/5/5 7/7/7 6/6/6 
s 2
f 7/8/7 8/9/8 9/10/9 
s 1
f 8/9/8 10/11/10 11/12/11 9/10/9 
s 2
f 10/11/10 12/7/12 11/12/11 
s 4
f 12/7/12 13/13/13 14/14/14 11/12/11 
s 1
f 13/13/13 15/15/15 16/16/16 14/14/14 
s 4
f 4/4/4 3/3/3 17/17/17 18/18/18 
s 2
f 3/3/3 6/6/6 19/19/19 17/17/17 
s 1
f 6/6/6 7/7/7 20/20/20 19/19/19 
s 2
f 7/21/7 9/10/9 21/22/21 20/23/20 
s 1
f 9/10/9 11/12/11 22/24/22 21/22/21 
s 8
f 11/12/11 14/14/14 23/25/23 22/24/22 
s 1
f 14/14/14 16/16/16 23/25/23 
s 2
f 24/26/24 25/27/25 26/28/26 16/16/16 
s 8
f 25/27/25 27/29/27 26/28/26 
f 27/29/27 28/30/28 26/28/26 
s 1
f 27/29/27 29/31/29 28/30/28 
s 2
f 27/29/27 30/32/30 31/33/31 29/31/29 
s 8
f 30/32/30 4/4/4 18/18/18 31/33/31 
s 16
f 18/18/18 17/17/17 32/34/32 33/35/33 
f 17/17/17 19/19/19 34/36/34 32/34/32 
f 19/19/19 20/20/20 35/37/35 34/36/34 
f 20/23/20 21/22/21 36/38/36 35/39/35 
f 21/22/21 22/24/22 37/40/37 36/38/36 
f 22/24/22 38/41/38 37/40/37 
f 22/24/22 23/25/23 39/42/39 38/41/38 
f 23/25/23 16/16/16 40/43/40 39/42/39 
f 16/16/16 41/44/41 40/43/40 
f 16/16/16 42/45/42 41/44/41 
f 16/16/16 26/28/26 42/45/42 
f 26/28/26 43/46/43 42/45/42 
f 26/28/26 28/30/28 44/47/44 43/46/43 
f 28/30/28 29/31/29 45/48/45 44/47/44 
f 29/31/29 31/33/31 46/49/46 45/48/45 
f 31/33/31 18/18/18 33/35/33 46/49/46 
f 47/50/47 33/35/33 32/34/32 
f 47/50/47 32/34/32 34/36/34 
f 47/50/47 34/36/34 35/37/35 
f 47/50/47 35/39/35 36/38/36 
f 47/50/47 36/38/36 37/40/37 
f 47/50/47 37/40/37 38/41/38 
f 47/50/47 38/41/38 39/42/39 
f 47/50/47 39/42/39 40/43/40 
f 47/50/47 40/43/40 41/44/41 
f 47/50/47 41/44/41 42/45/42 
f 47/50/47 42/45/42 43/46/43 
f 47/50/47 43/46/43 44/47/44 
f 47/50/47 44/47/44 45/48/45 
f 47/50/47 45/48/45 46/49/46 
f 47/50/47 46/49/46 33/35/33 
s 1
f 16/16/16 15/16/15 24/26/24 
f 15/16/15 48/51/48 24/26/24 
s 16
f 13/13/13 12/7/12 48/52/48 15/13/15 
s 8
f 12/29/12 27/29/27 25/27/25 24/26/24 
s 16
f 4/4/4 30/32/30 27/29/27 1/53/1 
s 4
f 2/2/2 49/2/49 5/5/5 
s 32
f 7/7/7 5/7/5 12/7/12 
f 7/7/7 12/7/12 8/51/8 
s 64
f 8/51/8 12/7/12 10/11/10 
s 4
f 49/2/49 2/2/2 1/53/1 
s 128
f 12/29/12 24/26/24 48/51/48 
s 256
f 49/2/49 1/53/1 12/53/12 
s 32
f 12/53/12 5/7/5 49/2/49 
s 8
f 12/54/12 1/53/1 27/29/27 
s 1
f 50/55/50 51/56/51 52/57/52 53/58/53 54/59/54 55/60/55 
s 8
f 55/60/55 54/59/54 56/61/56 57/62/57 
f 54/63/54 53/64/53 58/65/58 56/66/56 
f 53/64/53 52/67/52 59/68/59 58/65/58 
f 52/67/52 51/69/51 60/70/60 59/68/59 
f 51/69/51 50/71/50 61/72/61 60/70/60 
f 50/71/50 55/60/55 57/62/57 61/72/61 
f 57/62/57 56/61/56 62/73/56 63/74/57 
f 56/66/56 58/65/58 64/75/58 62/76/56 
f 58/65/58 59/68/59 65/77/59 64/75/58 
f 59/68/59 60/70/60 66/78/60 65/77/59 
f 60/70/60 61/72/61 67/79/61 66/78/60 
f 61/72/61 57/62/57 63/74/57 67/79/61 
f 63/74/57 62/73/56 68/80/56 69/81/57 
f 62/76/56 64/75/58 70/82/58 68/83/56 
f 64/75/58 65/77/59 71/84/59 70/82/58 
f 65/77/59 66/78/60 72/85/60 71/84/59 
f 66/78/60 67/79/61 73/86/61 72/85/60 
f 67/79/61 63/74/57 69/81/57 73/86/61 
f 69/81/57 68/80/56 74/87/56 75/88/57 
f 68/83/56 70/82/58 76/89/58 74/90/56 
f 70/82/58 71/84/59 77/91/59 76/89/58 
f 71/84/59 72/85/60 78/92/60 77/91/59 
f 72/85/60 73/86/61 79/93/61 78/92/60 
f 73/86/61 69/81/57 75/88/57 79/93/61 
f 75/88/57 74/87/56 80/50/62 
f 74/90/56 76/89/58 80/50/62 
f 76/89/58 77/91/59 80/50/62 
f 77/91/59 78/92/60 80/50/62 
f 78/92/60 79/93/61 80/50/62 
f 79/93/61 75/88/57 80/50/62 
s 1
f 81/94/63 82/95/64 83/96/65 
f 81/97/63 83/96/65 84/98/66 
f 81/99/63 84/98/66 85/100/67 
f 81/101/63 85/100/67 86/102/68 
f 81/103/63 86/102/68 87/104/69 
f 81/105/63 87/104/69 88/106/70 
f 81/107/63 88/106/70 89/108/71 
f 81/109/63 89/108/71 90/110/72 
f 81/111/63 90/110/72 82/112/64 
f 82/95/64 91/113/73 92/114/74 83/96/65 
f 83/96/65 92/114/74 93/115/75 84/98/66 
f 84/98/66 93/115/75 94/116/76 85/100/67 
f 85/100/67 94/116/76 95/117/77 86/102/68 
f 86/102/68 95/117/77 96/118/78 87/104/69 
f 87/104/69 96/118/78 97/119/79 88/106/70 
f 88/106/70 97/119/79 98/120/80 89/108/71 
f 89/108/71 98/120/80 99/121/81 90/110/72 
f 90/110/72 99/121/81 91/122/73 82/112/64 
f 91/113/73 100/123/82 101/124/83 92/114/74 
f 92/114/74 101/124/83 102/125/84 93/115/75 
f 93/115/75 102/125/84 103/126/85 94/116/76 
f 94/116/76 103/126/85 104/127/86 95/117/77 
f 95/117/77 104/127/86 105/128/87 96/118/78 
f 96/118/78 105/128/87 106/129/88 97/119/79 
f 97/119/79 106/129/88 107/130/89 98/120/80 
f 98/120/80 107/130/89 108/131/90 99/121/81 
f 99/121/81 108/131/90 100/132/82 91/122/73 
f 109/133/91 101/124/83 100/123/82 
f 109/134/91 102/125/84 101/124/83 
f 109/135/91 103/126/85 102/125/84 
f 109/136/91 104/127/86 103/126/85 
f 109/137/91 105/128/87 104/127/86 
f 109/138/91 106/129/88 105/128/87 
f 109/139/91 107/130/89 106/129/88 
f 109/140/91 108/131/90 107/130/89 
f 109/141/91 100/132/82 108/131/90 
f 110/94/63 111/95/64 112/96/65 
f 110/97/63 112/96/65 113/98/66 
f 110/99/63 113/98/66 114/100/67 
f 110/101/63 114/100/67 115/102/68 
f 110/103/63 115/102/68 116/104/69 
f 110/105/63 116/104/69 117/106/70 
f 110/107/63 117/106/70 118/108/71 
f 110/109/63 118/108/71 119/110/72 
f 110/111/63 119/110/72 111/112/64 
f 111/95/64 120/113/73 121/114/74 112/96/65 
f 112/96/65 121/114/74 122/115/75 113/98/66 
f 113/98/66 122/115/75 123/116/76 114/100/67 
f 114/100/67 123/116/76 124/117/77 115/102/68 
f 115/102/68 124/117/77 125/118/78 116/104/69 
f 116/104/69 125/118/78 126/119/79 117/106/70 
f 117/106/70 126/119/79 127/120/80 118/108/71 
f 118/108/71 127/120/80 128/121/81 119/110/72 
f 119/110/72 128/121/81 120/122/73 111/112/64 
f 120/113/73 129/123/82 130/124/83 121/114/74 
f 121/114/74 130/124/83 131/125/84 122/115/75 
f 122/115/75 131/125/84 132/126/85 123/116/76 
f 123/116/76 132/126/85 133/127/86 124/117/77 
f 124/117/77 133/127/86 134/128/87 125/118/78 
f 125/118/78 134/128/87 135/129/88 126/119/79 
f 126/119/79 135/129/88 136/130/89 127/120/80 
f 127/120/80 136/130/89 137/131/90 128/121/81 
f 128/121/81 137/131/90 129/132/82 120/122/73 
f 138/133/91 130/124/83 129/123/82 
f 138/134/91 131/125/84 130/124/83 
f 138/135/91 132/126/85 131/125/84 
f 138/136/91 133/127/86 132/126/85 
f 138/137/91 134/128/87 133/127/86 
f 138/138/91 135/129/88 134/128/87 
f 138/139/91 136/130/89 135/129/88 
f 138/140/91 137/131/90 136/130/89 
f 138/141/91 129/132/82 137/131/90 
f 139/94/63 140/95/64 141/96/65 
f 139/97/63 141/96/65 142/98/66 
f 139/99/63 142/98/66 143/100/67 
f 139/101/63 143/100/67 144/102/68 
f 139/103/63 144/102/68 145/104/69 
f 139/105/63 145/104/69 146/106/70 
f 139/107/63 146/106/70 147/108/71 
f 139/109/63 147/108/71 148/110/72 
f 139/111/63 148/110/72 140/112/64 
f 140/95/64 149/113/73 150/114/74 141/96/65 
f 141/96/65 150/114/74 151/115/75 142/98/66 
f 142/98/66 151/115/75 152/116/76 143/100/67 
f 143/100/67 152/116/76 153/117/77 144/102/68 
f 144/102/68 153/117/77 154/118/78 145/104/69 
f 145/104/69 154/118/78 155/119/79 146/106/70 
f 146/106/70 155/119/79 156/120/80 147/108/71 
f 147/108/71 156/120/80 157/121/81 148/110/72 
f 148/110/72 157/121/81 149/122/73 140/112/64 
f 149/113/73 158/123/82 159/124/83 150/114/74 
f 150/114/74 159/124/83 160/125/84 151/115/75 
f 151/115/75 160/125/84 161/126/85 152/116/76 
f 152/116/76 161/126/85 162/127/86 153/117/77 
f 153/117/77 162/127/86 163/128/87 154/118/78 
f 154/118/78 163/128/87 164/129/88 155/119/79 
f 155/119/79 164/129/88 165/130/89 156/120/80 
f 156/120/80 165/130/89 166/131/90 157/121/81 
f 157/121/81 166/131/90 158/132/82 149/122/73 
f 167/133/91 159/124/83 158/123/82 
f 167/134/91 160/125/84 159/124/83 
f 167/135/91 161/126/85 160/125/84 
f 167/136/91 162/127/86 161/126/85 
f 167/137/91 163/128/87 162/127/86 
f 167/138/91 164/129/88 163/128/87 
f 167/139/91 165/130/89 164/129/88 
f 167/140/91 166/131/90 165/130/89 
f 167/141/91 158/132/82 166/131/90 
s 2
f 168/142/92 169/143/93 170/94/94 171/144/95 
s 4
f 172/144/96 173/142/97 174/143/98 175/94/99 
s 8
f 168/144/92 171/142/95 173/143/97 172/94/96 
s 16
f 171/144/95 170/142/94 174/143/98 173/94/97 
s 32
f 170/144/94 169/142/93 175/143/99 174/94/98 
s 64
f 169/144/93 168/142/92 172/143/96 175/94/99 
s 1
f 176/94/63 177/95/64 178/96/65 
f 176/97/63 178/96/65 179/98/66 
f 176/99/63 179/98/66 180/100/67 
f 176/101/63 180/100/67 181/102/68 
f 176/103/63 181/102/68 182/104/69 
f 176/105/63 182/104/69 183/106/70 
f 176/107/63 183/106/70 184/108/71 
f 176/109/63 184/108/71 185/110/72 
f 176/111/63 185/110/72 177/112/64 
f 177/95/64 186/113/73 187/114/74 178/96/65 
f 178/96/65 187/114/74 188/115/75 179/98/66 
f 179/98/66 188/115/75 189/116/76 180/100/67 
f 180/100/67 189/116/76 190/117/77 181/102/68 
f 181/102/68 190/117/77 191/118/78 182/104/69 
f 182/104/69 191/118/78 192/119/79 183/106/70 
f 183/106/70 192/119/79 193/120/80 184/108/71 
f 184/108/71 193/120/80 194/121/81 185/110/72 
f 185/110/72 194/121/81 186/122/73 177/112/64 
f 186/113/73 195/123/82 196/124/83 187/114/74 
f 187/114/74 196/124/83 197/125/84 188/115/75 
f 188/115/75 197/125/84 198/126/85 189/116/76 
f 189/116/76 198/126/85 199/127/86 190/117/77 
f 190/117/77 199/127/86 200/128/87 191/118/78 
f 191/118/78 200/128/87 201/129/88 192/119/79 
f 192/119/79 201/129/88 202/130/89 193/120/80 
f 193/120/80 202/130/89 203/131/90 194/121/81 
f 194/121/81 203/131/90 195/132/82 186/122/73 
f 204/133/91 196/124/83 195/123/82 
f 204/134/91 197/125/84 196/124/83 
f 204/135/91 198/126/85 197/125/84 
f 204/136/91 199/127/86 198/126/85 
f 204/137/91 200/128/87 199/127/86 
f 204/138/91 201/129/88 200/128/87 
f 204/139/91 202/130/89 201/129/88 
f 204/140/91 203/131/90 202/130/89 
f 204/141/91 195/132/82 203/131/90 
# 131 polygons - 116 triangles

